<svg xmlns="http://www.w3.org/2000/svg" xmlns:xlink="http://www.w3.org/1999/xlink" viewBox="0 0 68.44 29.03"><defs><style>.cls-1,.cls-2,.cls-4{fill:#fff;}.cls-1{clip-rule:evenodd;}.cls-2{fill-rule:evenodd;}.cls-3{clip-path:url(#clip-path);}.cls-5{clip-path:url(#clip-path-2);}.cls-6{clip-path:url(#clip-path-3);}.cls-7{clip-path:url(#clip-path-4);}.cls-8{clip-path:url(#clip-path-5);}</style><clipPath id="clip-path"><path class="cls-1" d="M27.36,14.42l-.19.06-.13.13-.13.06-.06.06-.13.07-.06.13-.07.06-.06.13-.07.07-.06.13-.06.25-.07.19v.13l2.25-.06.19-.07.13-.06.06-.06.06-.58H28.9v-.13l-.06-.06h-.07v-.14l-.06-.06-.13-.06-.06-.07-.13-.06-.26-.06Zm-.06-.84-.19.07-.2.06L26.4,14l-.19.19-.13.07-.13.12-.06.13-.13.13-.06.12-.07.07-.06.19-.13.26-.07.26-.06.19-.06.63.06.07V17h.06v.26h.07v.19h.06v.13h.07v.13h.06v.12h.07v.12h.06l.13.14v.13H26l.19.19.13.06.13.13.26.13.06.07.58.19,1.22.06V19l.32-.07.12-.06.2-.06.12-.07.13-.13.13-.06.06-.07.07-.12.06-.77h-.06l-.13.13-.13.06-.06.06-.19.07-.13.05-.32.07-1.16.07V18l-.25-.07-.39-.18-.13-.13h-.06v-.13l-.13-.12h-.06v-.13h-.07V17H26.4v-.19l-.06-.07,2.3-.06L29,16.6l.19-.07.13-.06.19-.07.26-.25.13-.26.06-1h-.06V14.8h-.07v-.19l-.06-.07h-.07v-.12L29.28,14l-.64-.32-.25-.07Z"/></clipPath><clipPath id="clip-path-2"><path class="cls-1" d="M60.81,22.87l-.19.07-.13.13-.13.06-.25.26-.07.13-.06.06-.07.13-.12.51v.12L62,24.29l.26-.07.13-.06.06-.07.07-.57-.07-.07h-.06v-.13h-.07V23.2l-.06-.07L62,23l-.06-.06-.26-.07Zm0-.83-.26.07-.19.06-.25.13-.07.06-.13.07-.12.13-.13.06-.2.19-.06.13-.13.13-.06.13-.07.06-.06.13-.06.19-.07.13-.06.19-.07.26-.06.64.06.06v.58h.07v.26H59v.19H59V26h.06v.13h.06v.12h.07v.13h.06l.13.13v.13h.06l.26.25.13.07.13.12.38.2.19.06.26.07,1.28.06v-.06l.26-.07.38-.13.13-.13L63,27l.13-.13.06-.12.06-.77h-.12l-.19.19-.13.06-.19.07-.13.06-.26.06-1.15.07v-.07l-.26-.06-.39-.19-.31-.32H60v-.13H60v-.19h-.07v-.2h-.06v-.13l-.06-.06,2.3-.06.39-.06.19-.07.13-.06.19-.07.25-.25.13-.27.07-.95h-.07v-.13h-.06v-.19L63.24,23h-.06v-.13l-.45-.44-.64-.32L61.84,22Z"/></clipPath><clipPath id="clip-path-3"><path class="cls-1" d="M53.38,14.42l-.19.06-.13.13-.13.06-.26.26-.06.13-.07.06-.06.13-.13.51v.13l2.18-.06.19-.07.13-.06.07-.06.06-.58h-.06v-.13l-.07-.06h-.06v-.14l-.07-.06-.13-.06-.06-.07-.13-.06-.25-.06Zm0-.84-.26.07-.19.06-.39.2-.06.06-.13.06-.51.51-.06.13-.07.06-.25.52-.07.26-.06.19-.07.63.07.07V17h.06v.19h.07v.2h.06v.19h.06l.07.06v.13h.06v.13h.07l.06.05v.14h.06l.32.32.13.06.07.07.25.13.07.06.13.07.25.06.19.06,1.35.07V18.9l.58-.19.12-.06.2-.2h.12v-.12l.07-.77h-.07l-.19.19-.13.06-.19.07-.13.05-.25.07-1.22.07V18l-.26-.07-.12-.05-.07-.07L53,17.75h-.12v-.13l-.2-.19h-.06V17.3h-.07v-.13h-.06V17h-.06v-.19l-.07-.07,2.31-.06L55,16.6l.2-.07.12-.06.2-.07.25-.25.13-.26.06-1h-.06V14.8h-.06v-.19l-.07-.07h-.06v-.12L55.3,14l-.64-.32-.26-.07Z"/></clipPath><clipPath id="clip-path-4"><path class="cls-1" d="M48.83,24.93l-.71.06-.38.13-.06.06-.13.06-.13.13-.13.39.06.06V26h.07v.13h.06l.2.19.25.12,1,.07v-.07l.25-.12h.13v-.13l.06-.06.07-.13.06-1.09ZM33,22.94l-.26.06-.06.07-.13.06-.13.13-.12.06-.26.52-.06.32-.07.45.07.06v.45H32v.38h.06v.13h.07v.13h.06v.13h.07V26h.06l.13.13.13.06.06.06.13.07.06.06.32.06.71.07v-.07l.25-.06.13-.06.19-.19h.13V26l.2-.39.06-.32.06-1h-.06V24H34.8v-.12h-.07v-.13h-.06v-.13H34.6v-.13l-.19-.19-.13-.06-.13-.13L34,23l-.2-.06Zm-6,0-.2.06-.12.13-.13.07-.19.19-.26.51-.06.26-.07.45.07.06v.45h.06v.38h.06v.13h.07v.13h.06v.13h.07V26h.06l.06.06.13.07.13.12.13.07.06.06.2.06.83.07v-.07l.25-.06.07-.06.13-.07.13-.12h.12V26l.2-.39.06-.32.06-1H28.9V24h-.06v-.12h-.07v-.13h-.06v-.13h-.07v-.13l-.19-.19-.13-.06-.13-.13L28.07,23l-.2-.06Zm29.67-.77-.2.07-.13.06-.06.06-.13.07-.38.38-.32.64-.07.32-.06.57v2.51h.06v.32h.07v.13h.13l.06.06.7.07V24.48l.07-.71.13-.38.13-.13.12-.06.07-.07h1l.38.19v-.7h-.06v-.13L58,22.36l-.13-.06-.06-.06-.19-.07ZM52,22.11V26h.07v.39h.06v.32h.06l.07.06v.13h.06l.07.06V27h.06l.06.06.13.07.07.06.25.13.32.07.71.06v-.06l.19-.2.06-.7-.76-.07-.13-.06-.13-.13h-.06v-.12h-.07v-.33h-.06V22.56H53v-.13l-.19-.19-.13-.07-.32-.06Zm14-.07-.26.07-.19.06-.39.19-.06.07-.13.06-.26.25-.25.52-.07.38.07.07V24h.06v.26h.07l.19.19v.13H65l.38.19.19.06.26.07L66,25l.32.07.26.06.38.12.26.13.13.13v.13h.06l-.06.52-.26.25-.19.06-1.35.07v-.07l-.25-.12-.2-.07L65,26.21l-.07-.06-.13-.07L64.72,26,64.59,26h-.06v.51h.06v.26h.07v.13h.06l.32.32.19.06.26.13.32.07,1.09.06v-.06l.32-.07.38-.19.07-.07.25-.12.2-.19.19-.39.06-.19.07-.71h-.07v-.26h-.06v-.12L68.18,25h-.06v-.13l-.07-.06-.25-.13-.07-.06-.26-.13-.19-.07-1-.25L65.87,24,65.74,24l-.12-.12h-.07v-.2l-.06-.06.06-.19.07-.13.19-.19.13-.07.25-.06.52-.07h.12l.58.07.51.26.07.06.13.06.06.07.13.06v-.71h-.07v-.12l-.38-.38-.58-.2Zm-29,0v3h.06v.64h.07V26h.06v.2h.07v.12h.06v.13h.06v.13h.07l.06.06v.13h.07l.38.38.39.2.38.13,1.15.06v-.06l.26-.07.19-.06.39-.2.06-.06L41,27l.19-.19.07-.13.06-.07.19-.38.07-.19.06-.26.07-3.27h-.07v-.13h-.06v-.12l-.13-.07-.07-.06L41,22h-.32l-.06,3.59-.07.19-.19.39-.13.06-.06.07-.13.06-.19.06-.77.07v-.07l-.26-.06-.19-.19-.13-.06h-.06V26h-.07v-.13h-.06v-.13h-.06V25.5h-.07V25h-.06v-2.5h-.07v-.13H38v-.12l-.13-.07-.06-.06L37.42,22Zm-4.16,0-.26.07-.26.06-.38.19-.13.13-.13.07-.25.25-.07.13-.12.13-.2.38-.06.19-.13.52-.06.7v3.53H31v.31H31v.13h.07l.06.07.13.06.64.07V26.72H32l.32.32.12.06.13.13.19.07.13.06.2.07,1,.06v-.06l.38-.13.39-.2.06-.06L35,27l.32-.32.06-.13.06-.07.07-.12.06-.07.07-.19.13-.26.12-.51L36,24h-.07v-.26h-.06v-.19h-.06v-.13h-.07v-.13h-.06V23.2h-.07v-.13l-.13-.13h-.06v-.13l-.25-.25L35,22.49l-.13-.13-.39-.19L34.09,22Zm-6,0-.25.07-.2.06-.38.19-.13.13-.13.07-.25.25-.07.13-.13.13-.19.38-.12.39-.07.32-.06.64.06.06v.58h.07v.26h.06v.19h.06V26h.07v.13h.06v.12h.06v.13h.07l.13.13v.13h.06l.26.25L26,27l.12.12.39.2.19.06.26.07,1.15.06v-.06l.39-.13.25-.13.07-.07L29,27l.2-.19.12-.06.07-.13.13-.13.06-.13.06-.06.07-.19.13-.26.13-.52L30,24h-.06v-.26h-.07v-.25H29.8v-.13h-.07v-.13h-.06v-.13l-.07-.06h-.06v-.13L29,22.43l-.39-.19-.06-.07-.26-.06L28.13,22ZM47.8,22l-.32.06L47,22.3l-.39.38-.12.39v.51l.12-.06.33-.32.25-.13.19-.07.13-.06.26-.07h1.15l.39.2v.13h.06l.06.06v.13h.07v.13h.06v.57h-.7l-.77.07-.32.06-.58.19-.06.07-.26.13-.32.32-.06.13-.07.06-.06.19-.07.13-.06.45.06.06v.32h.07v.19h.06v.13h.07l.06.07v.13h.06l.13.12.13.07.07.06.64.32.25.07,1.28.06v-.06l.26-.07.19-.06.39-.2.32-.31.19-.39.06-.32.07-2.69h-.07v-.26h-.06V23h-.07v-.13H50.3v-.13l-.19-.18h-.06v-.13l-.13-.07-.13-.12-.13-.07-.19-.06L49.34,22,49,22ZM21.08,21.6l-.45.06V23.9h.26l.19.06.32.07,1.09.06V24l.19-.07.26-.12h.13v-.13l.06-.07.07-.12.06-.07.06-.25.07-.71h-.07v-.25l-.06-.07H23.2V22l-.26-.25-.26-.13-.25-.06ZM21,20.7l-.52.06-.64.13-.25.06v5.9h.06v.25h.07v.13h.06l.06.07.13.06.64.07v-2.7h.2l.38.13,1.35.07v-.07l.25-.06.19-.07.39-.19.06-.06.13-.07L24,24l.13-.25.06-.07.13-.38.06-1h-.06v-.19h-.06v-.2h-.07v-.12l-.06-.07h-.07V21.6l-.45-.46-.12-.06L23.45,21l-.25-.13-.39-.13-.25-.06Zm22-.39V26h.06v.39h.07v.32h.06l.07.06v.13h.06l.06.06V27h.07l.06.06.26.13.06.07.13.06.32.07.9.06v-.06l.13-.07.13-.13.06-.7-1-.07-.12-.06h-.13v-.13l-.07-.06h-.06v-.39h-.06V20.7L44,20.63H44v-.12l-.13-.07-.06-.06-.33-.07Zm9.23-.06-.07.06-.12.07-.07.13-.06.06-.07.25.07.07v.19H52v.13h.07l.12.13.13.06.52.07V21.4l.06-.06.13-.07.06-.06.07-.13.06-.51L53,20.31l-.12-.06ZM41.07,16.47l-.7.06-.39.13-.06.06-.13.07-.12.13-.13.38.06.07v.19h.07v.13h.06l.19.19.19.05.13.07,1,.07V18l.25-.12.07-.13.06-.06.07-.13.06-1.09Zm-4.55-2.76-.19.07L36,14l-.32.32-.07.13-.06.06-.26.51-.06.33-.06.57v2.5h.06v.26h.06v.13h.07l.12.12.71.07V16l.06-.7.13-.38.13-.07.13-.13.13-.06h.76l.2.06.06.06.26.14V14.1L37.93,14h-.06v-.12l-.13-.07-.06-.06-.2-.07Zm7.82-.06v3.84h.07v.39h.06v.25h.06v.13h.07v.13h.06l.07.06v.13h.06l.38.2.07.06.32.06.77.07V18.9l.13-.06.06-.13.06-.64L45.82,18l-.13-.07h-.13v-.12H45.5v-.12h-.07v-.32h-.06V14.1L45.3,14h-.06v-.12l-.07-.07-.12-.06L45,13.71l-.32-.06Zm14.29-.07-.25.07-.2.06-.38.2-.06.06-.13.06-.26.26-.26.51-.06.39.06.06v.32h.07v.19h.06v.13h.07l.25.26.39.18.19.07.26.07.19.06.32.07.25.06.39.13.26.13.12.12v.13H60l-.07.52-.25.24-.2.07-1.34.07V18l-.26-.12-.19-.07-.13-.06-.06-.06-.13-.07-.13-.13h-.13V18h.07v.26h.06v.13h.07l.12.06.2.2.25.13.2.06.25.06,1,.07V18.9l.45-.06.63-.32.33-.32.13-.27.06-.18L61,17h-.06v-.25h-.06v-.13l-.13-.13h-.07V16.4l-.06-.07-.26-.12-.06-.06L60,16,59.85,16l-.77-.19-.19-.06-.26-.06-.13-.07-.19-.06-.13-.13h-.06v-.19l-.06-.07.06-.19.06-.13.2-.19.12-.07.26-.06.51-.06h.13l.58.06.51.25.06.07.13.07.07.06.13.06v-.7h-.07v-.13l-.39-.38-.57-.2Zm-18.58-.06-.32.06-.51.26-.39.39-.13.38v.51l.13-.06.32-.33.26-.12.19-.07.13-.06.25-.06h1.16l.38.19.07.06v.13h.06l.07.07V15h.06v.65h-.71l-.77.06-.32.06-.38.13-.38.19-.45.45-.13.26-.06.19-.07.45.07.06v.32h.06V18h.06v.13h.07l.06.07v.13h.07l.12.12.13.07.07.06.19.07.38.19.39.06,1.15.07V18.9l.51-.12.26-.13.13-.13.13-.07.06-.06.06-.13.07-.06.06-.13.07-.19.06-.26.06-2.69h-.06v-.26h-.06v-.13h-.07v-.12h-.06v-.13l-.19-.19h-.07V14l-.13-.06L42,13.78l-.13-.07-.19-.06-.13-.07-.32-.06Zm-19-.45-.45.06v2.12h.45l1.35.07v-.07l.25-.13.2-.06.32-.33.06-.19.06-.7h-.06v-.19l-.32-.32-.26-.13-.19-.07L22,13.07Zm11-.51-.25.06-.13.07-.19.19-.13.06-.06.19-.07.13-.06.19-.07.33v3.46h.07v.45h.06V18h.07v.13h.06v.13h.06l.07.07v.12h.06v.13h.13l.13.07.06.06.26.13.32.06,1,.07V18.9l.19-.06.13-.06.06-.13.07-.07.06-.7H33.9l-.07.05-.12.07-1,.07V18l-.25-.12-.07-.07h-.06v-.12H32.3v-.13h-.07v-.45h-.06V14.54l1.47-.06.13-.06h.13v-.13l.06-.06.07-.65H32.17v-1Zm16.41-.06-.26.06-.13.06-.19.2-.13.06-.19.38-.06.45v3.46h.06v.58h.07V18h.06v.13h.06v.13h.07l.06.07v.12H48v.13h.12l.13.07.07.06.25.13.32.06,1,.07V18.9l.26-.12.19-.2.06-.7H50.3l-.06.05-.13.07-1,.07V18L49,17.93l-.13-.12h-.07v-.12H48.7v-.13h-.06v-.45h-.07V14.48l1.54-.06.13-.07.12-.12.07-.65H48.57V12.5Zm-26.66-.33-.9.07-.51.06-.51.13-.32.07v5.89h.06v.32h.07l.19.19.7.07V16.08H21l.77.07.32.06.06.07.13,0,.26.27v.12h.06l.06.07v.13h.07V17h.06v.13h.07v.2h.06v.12H23v.13h.07v.13h.06v.18h.07v.14h.06v.13h.06v.13h.07v.19h.06l.07.06v.13h.06l.06.07.26.12.9.07v-.13l-.07-.06h-.06v-.13l-.06-.07h-.07v-.13l-.06-.06h-.07V18.2h-.06v-.13h-.06v-.19h-.07v-.13h-.06v-.13h-.07v-.19H24V17.3H24v-.19H23.9V17h-.06v-.13h-.07v-.19h-.06v-.13l-.07-.06h-.06v-.14L23.2,16l-.39-.19.58-.19.25-.13.13-.12.13-.07.07-.06.06-.13.06-.07.13-.26.07-.25.06-.9h-.06v-.19h-.07v-.13h-.06v-.13l-.07-.06H24v-.13l-.26-.25-.25-.13-.07-.06-.13-.07-.19-.06L23,12.3l-.32-.06-.7-.07Zm22.75-.38-.13.06-.13.13-.06.13-.07.26.07.06v.26h.06l.07.06v.13h.12l.07.06.57.07v-.07l.07-.06.13-.06.06-.07.07-.13.06-.51-.26-.26-.13-.06Z"/></clipPath><clipPath id="clip-path-5"><path class="cls-1" d="M30.63,0,30.5.06l-.13.07-.06.06L29.8.45l-.07.06L29.6.58l-.06.06-.26.13-.06.06L29.09.9,29,1,28.9,1l-.06.06-.13.06-.13.13-.13.06-.06.07-.13.06-.19.2-.13.06-.13.13-.13.06-.19.19-.13.07-.45.45-.13.06L25.06,4.42,25,4.55,24.54,5l.64.06V5l.58-.07.51-.06.45-.07.39-.06.44-.06.26-.07,1.28-.25.77-.19.19-.07L30.31,4l.58-.2L31,3.78l.2-.06.25-.13.2-.07.25-.12.19-.07.26-.13.19-.06.13-.06L32.74,3l1.16-.57L34,2.37l.13-.06.06-.07.26-.13.06-.06L34.6,2l.07-.07.25-.12L35,1.73l.13-.06.06-.07.13-.06.12-.13.13-.07.13-.12.13-.07L36,1,36.08,1l.19-.19L35.88.64,35.63.58l-.2-.07L34.92.38,34,.19,33.58.13,32.42,0ZM28.71,0,28,.06l-.51.07L26.14.31l-1,.2L24.8.58l-.26.06L24.22.7l-.77.2L23.13,1,22.94,1l-.51.12-.19.07L22,1.28l-.19.06-.26.07-1.35.45-.12.06-.39.13-.13.06-.19.07-.13.06L19,2.31l-.13.06-.19.07-.26.12-.19.07L18,2.75l-.2.07L17.43,3l-.19.07L14.55,4.42l-.07.06-.38.2L14,4.74l-.38.19L13.58,5l-.25.12-.07.07-.12.06-.07.07-.25.13-.07.06-.13.06-.06.07-.26.13-.06.06-.13.06L12.05,6,11.92,6l-.07.07-.12.06-.07.06-.13.07-.12.13-.13.06-.07.06-.13.07L11,6.66l-.13.06-.12.14-.13.06-.13.13-.13.06-.06.07-.13.06-.13.13-.13.06-.19.19-.13.07-.19.19L9.29,8l-.19.19L9,8.2l-.25.26-.13.06-.32.32-.13.07-.39.38-.13.07L5.38,11.6l-.06.13-.19.19-.07.13-.25.25-.07.13-.25.26-.07.13-.13.12-.06.13-.13.13L4,13.33,4,13.39l-.06.13-.13.13-.06.13-.07.06L3.59,14l-.13.13-.06.13-.07.06-.13.25-.06.07-.06.12L3,14.8l-.13.26-.06.06-.06.13-.07.07-.19.38-.07.06-.32.64-.06.07-.32.64-.06.19-.32.63-.07.2-.06.13-.07.19-.06.13-.07.2L1,18.9l-.13.39-.06.13-.13.38-.06.26-.26.76-.06.32-.26,1,1.35.07v-.07l.57-.06L2.43,22,2.76,22,3,21.91l.64-.12L4,21.66l.25-.06,1-.33.12-.06.2-.07.12-.06L5.9,21,6,21l.19-.06.13-.07.2-.06,2.05-1,.06-.07L9,19.48l.06-.06.38-.2.07-.06L9.8,19,9.87,19l.26-.13.06-.06.13-.07.06-.06.13-.07.06-.06.13-.07.07-.06.12-.06.07-.07.12-.06.07-.07.13-.06.06-.07.13-.07.06-.05.13-.07.07-.06.12-.06.07-.07.13-.06.06-.07.13-.06.13-.13.13-.06.19-.2.13-.06.19-.19.13-.07.32-.32.12-.07L14,16l.13-.06,1.79-1.79L16,14l.64-.64.06-.13.45-.45.06-.13.39-.38.06-.13.26-.26.06-.12.26-.26.06-.13.26-.26.06-.12.19-.2.07-.12.13-.13.06-.13.19-.19.07-.13.19-.19.06-.13.2-.19.06-.13L20,9.23l.07-.13.19-.19.06-.13.19-.19.07-.13.26-.26.06-.13.19-.19.07-.13.25-.25.07-.13.25-.26L21.79,7,22,6.72l.07-.12.25-.26.07-.13L22.68,6l.07-.13L23,5.57l.07-.12.13-.07.12-.13.07-.13.25-.25.07-.13.51-.51.07-.13L26,2.37l.12-.06.39-.39.13-.06.25-.26L27,1.54l.26-.26.13-.06.12-.13L27.68,1,27.75,1,27.87.9,28,.77,28.13.7l.13-.12.26-.13.06-.07L29,.19,29,.13,29.28,0Z"/></clipPath></defs><title>Fichier 2</title><g id="Calque_2" data-name="Calque 2"><g id="TXT"><path class="cls-2" d="M27.36,14.42l-.19.06-.13.13-.13.06-.06.06-.13.07-.06.13-.07.06-.06.13-.07.07-.06.13-.06.25-.07.19v.13l2.25-.06.19-.07.13-.06.06-.06.06-.58H28.9v-.13l-.06-.06h-.07v-.14l-.06-.06-.13-.06-.06-.07-.13-.06-.26-.06Zm-.06-.84-.19.07-.2.06L26.4,14l-.19.19-.13.07-.13.12-.06.13-.13.13-.06.12-.07.07-.06.19-.13.26-.07.26-.06.19-.06.63.06.07V17h.06v.26h.07v.19h.06v.13h.07v.13h.06v.12h.07v.12h.06l.13.14v.13H26l.19.19.13.06.13.13.26.13.06.07.58.19,1.22.06V19l.32-.07.12-.06.2-.06.12-.07.13-.13.13-.06.06-.07.07-.12.06-.77h-.06l-.13.13-.13.06-.06.06-.19.07-.13.05-.32.07-1.16.07V18l-.25-.07-.39-.18-.13-.13h-.06v-.13l-.13-.12h-.06v-.13h-.07V17H26.4v-.19l-.06-.07,2.3-.06L29,16.6l.19-.07.13-.06.19-.07.26-.25.13-.26.06-1h-.06V14.8h-.07v-.19l-.06-.07h-.07v-.12L29.28,14l-.64-.32-.25-.07Z"/><g class="cls-3"><rect class="cls-4" x="25.25" y="13.58" width="4.74" height="5.44"/></g><path class="cls-2" d="M60.81,22.87l-.19.07-.13.13-.13.06-.25.26-.07.13-.06.06-.07.13-.12.51v.12L62,24.29l.26-.07.13-.06.06-.07.07-.57-.07-.07h-.06v-.13h-.07V23.2l-.06-.07L62,23l-.06-.06-.26-.07Zm0-.83-.26.07-.19.06-.25.13-.07.06-.13.07-.12.13-.13.06-.2.19-.06.13-.13.13-.06.13-.07.06-.06.13-.06.19-.07.13-.06.19-.07.26-.06.64.06.06v.58h.07v.26H59v.19H59V26h.06v.13h.06v.12h.07v.13h.06l.13.13v.13h.06l.26.25.13.07.13.12.38.2.19.06.26.07,1.28.06v-.06l.26-.07.38-.13.13-.13L63,27l.13-.13.06-.12.06-.77h-.12l-.19.19-.13.06-.19.07-.13.06-.26.06-1.15.07v-.07l-.26-.06-.39-.19-.31-.32H60v-.13H60v-.19h-.07v-.2h-.06v-.13l-.06-.06,2.3-.06.39-.06.19-.07.13-.06.19-.07.25-.25.13-.27.07-.95h-.07v-.13h-.06v-.19L63.24,23h-.06v-.13l-.45-.44-.64-.32L61.84,22Z"/><g class="cls-5"><rect class="cls-4" x="58.76" y="22.04" width="4.67" height="5.44"/></g><path class="cls-2" d="M53.38,14.42l-.19.06-.13.13-.13.06-.26.26-.06.13-.07.06-.06.13-.13.51v.13l2.18-.06.19-.07.13-.06.07-.06.06-.58h-.06v-.13l-.07-.06h-.06v-.14l-.07-.06-.13-.06-.06-.07-.13-.06-.25-.06Zm0-.84-.26.07-.19.06-.39.2-.06.06-.13.06-.51.51-.06.13-.07.06-.25.52-.07.26-.06.19-.07.63.07.07V17h.06v.19h.07v.2h.06v.19h.06l.07.06v.13h.06v.13h.07l.06.05v.14h.06l.32.32.13.06.07.07.25.13.07.06.13.07.25.06.19.06,1.35.07V18.9l.58-.19.12-.06.2-.2h.12v-.12l.07-.77h-.07l-.19.19-.13.06-.19.07-.13.05-.25.07-1.22.07V18l-.26-.07-.12-.05-.07-.07L53,17.75h-.12v-.13l-.2-.19h-.06V17.3h-.07v-.13h-.06V17h-.06v-.19l-.07-.07,2.31-.06L55,16.6l.2-.07.12-.06.2-.07.25-.25.13-.26.06-1h-.06V14.8h-.06v-.19l-.07-.07h-.06v-.12L55.3,14l-.64-.32-.26-.07Z"/><g class="cls-6"><rect class="cls-4" x="51.26" y="13.58" width="4.74" height="5.38"/></g><path class="cls-2" d="M48.83,24.93l-.71.06-.38.13-.06.06-.13.06-.13.13-.13.39.06.06V26h.07v.13h.06l.2.19.25.12,1,.07v-.07l.25-.12h.13v-.13l.06-.06.07-.13.06-1.09ZM33,22.94l-.26.06-.06.07-.13.06-.13.13-.12.06-.26.52-.06.32-.07.45.07.06v.45H32v.38h.06v.13h.07v.13h.06v.13h.07V26h.06l.13.13.13.06.06.06.13.07.06.06.32.06.71.07v-.07l.25-.06.13-.06.19-.19h.13V26l.2-.39.06-.32.06-1h-.06V24H34.8v-.12h-.07v-.13h-.06v-.13H34.6v-.13l-.19-.19-.13-.06-.13-.13L34,23l-.2-.06Zm-6,0-.2.06-.12.13-.13.07-.19.19-.26.51-.06.26-.07.45.07.06v.45h.06v.38h.06v.13h.07v.13h.06v.13h.07V26h.06l.06.06.13.07.13.12.13.07.06.06.2.06.83.07v-.07l.25-.06.07-.06.13-.07.13-.12h.12V26l.2-.39.06-.32.06-1H28.9V24h-.06v-.12h-.07v-.13h-.06v-.13h-.07v-.13l-.19-.19-.13-.06-.13-.13L28.07,23l-.2-.06Zm29.67-.77-.2.07-.13.06-.06.06-.13.07-.38.38-.32.64-.07.32-.06.57v2.51h.06v.32h.07v.13h.13l.06.06.7.07V24.48l.07-.71.13-.38.13-.13.12-.06.07-.07h1l.38.19v-.7h-.06v-.13L58,22.36l-.13-.06-.06-.06-.19-.07ZM52,22.11V26h.07v.39h.06v.32h.06l.07.06v.13h.06l.07.06V27h.06l.06.06.13.07.07.06.25.13.32.07.71.06v-.06l.19-.2.06-.7-.76-.07-.13-.06-.13-.13h-.06v-.12h-.07v-.33h-.06V22.56H53v-.13l-.19-.19-.13-.07-.32-.06Zm14-.07-.26.07-.19.06-.39.19-.06.07-.13.06-.26.25-.25.52-.07.38.07.07V24h.06v.26h.07l.19.19v.13H65l.38.19.19.06.26.07L66,25l.32.07.26.06.38.12.26.13.13.13v.13h.06l-.06.52-.26.25-.19.06-1.35.07v-.07l-.25-.12-.2-.07L65,26.21l-.07-.06-.13-.07L64.72,26,64.59,26h-.06v.51h.06v.26h.07v.13h.06l.32.32.19.06.26.13.32.07,1.09.06v-.06l.32-.07.38-.19.07-.07.25-.12.2-.19.19-.39.06-.19.07-.71h-.07v-.26h-.06v-.12L68.18,25h-.06v-.13l-.07-.06-.25-.13-.07-.06-.26-.13-.19-.07-1-.25L65.87,24,65.74,24l-.12-.12h-.07v-.2l-.06-.06.06-.19.07-.13.19-.19.13-.07.25-.06.52-.07h.12l.58.07.51.26.07.06.13.06.06.07.13.06v-.71h-.07v-.12l-.38-.38-.58-.2Zm-29,0v3h.06v.64h.07V26h.06v.2h.07v.12h.06v.13h.06v.13h.07l.06.06v.13h.07l.38.38.39.2.38.13,1.15.06v-.06l.26-.07.19-.06.39-.2.06-.06L41,27l.19-.19.07-.13.06-.07.19-.38.07-.19.06-.26.07-3.27h-.07v-.13h-.06v-.12l-.13-.07-.07-.06L41,22h-.32l-.06,3.59-.07.19-.19.39-.13.06-.06.07-.13.06-.19.06-.77.07v-.07l-.26-.06-.19-.19-.13-.06h-.06V26h-.07v-.13h-.06v-.13h-.06V25.5h-.07V25h-.06v-2.5h-.07v-.13H38v-.12l-.13-.07-.06-.06L37.42,22Zm-4.16,0-.26.07-.26.06-.38.19-.13.13-.13.07-.25.25-.07.13-.12.13-.2.38-.06.19-.13.52-.06.7v3.53H31v.31H31v.13h.07l.06.07.13.06.64.07V26.72H32l.32.32.12.06.13.13.19.07.13.06.2.07,1,.06v-.06l.38-.13.39-.2.06-.06L35,27l.32-.32.06-.13.06-.07.07-.12.06-.07.07-.19.13-.26.12-.51L36,24h-.07v-.26h-.06v-.19h-.06v-.13h-.07v-.13h-.06V23.2h-.07v-.13l-.13-.13h-.06v-.13l-.25-.25L35,22.49l-.13-.13-.39-.19L34.09,22Zm-6,0-.25.07-.2.06-.38.19-.13.13-.13.07-.25.25-.07.13-.13.13-.19.38-.12.39-.07.32-.06.64.06.06v.58h.07v.26h.06v.19h.06V26h.07v.13h.06v.12h.06v.13h.07l.13.13v.13h.06l.26.25L26,27l.12.12.39.2.19.06.26.07,1.15.06v-.06l.39-.13.25-.13.07-.07L29,27l.2-.19.12-.06.07-.13.13-.13.06-.13.06-.06.07-.19.13-.26.13-.52L30,24h-.06v-.26h-.07v-.25H29.8v-.13h-.07v-.13h-.06v-.13l-.07-.06h-.06v-.13L29,22.43l-.39-.19-.06-.07-.26-.06L28.13,22ZM47.8,22l-.32.06L47,22.3l-.39.38-.12.39v.51l.12-.06.33-.32.25-.13.19-.07.13-.06.26-.07h1.15l.39.2v.13h.06l.06.06v.13h.07v.13h.06v.57h-.7l-.77.07-.32.06-.58.19-.06.07-.26.13-.32.32-.06.13-.07.06-.06.19-.07.13-.06.45.06.06v.32h.07v.19h.06v.13h.07l.06.07v.13h.06l.13.12.13.07.07.06.64.32.25.07,1.28.06v-.06l.26-.07.19-.06.39-.2.32-.31.19-.39.06-.32.07-2.69h-.07v-.26h-.06V23h-.07v-.13H50.3v-.13l-.19-.18h-.06v-.13l-.13-.07-.13-.12-.13-.07-.19-.06L49.34,22,49,22ZM21.08,21.6l-.45.06V23.9h.26l.19.06.32.07,1.09.06V24l.19-.07.26-.12h.13v-.13l.06-.07.07-.12.06-.07.06-.25.07-.71h-.07v-.25l-.06-.07H23.2V22l-.26-.25-.26-.13-.25-.06ZM21,20.7l-.52.06-.64.13-.25.06v5.9h.06v.25h.07v.13h.06l.06.07.13.06.64.07v-2.7h.2l.38.13,1.35.07v-.07l.25-.06.19-.07.39-.19.06-.06.13-.07L24,24l.13-.25.06-.07.13-.38.06-1h-.06v-.19h-.06v-.2h-.07v-.12l-.06-.07h-.07V21.6l-.45-.46-.12-.06L23.45,21l-.25-.13-.39-.13-.25-.06Zm22-.39V26h.06v.39h.07v.32h.06l.07.06v.13h.06l.06.06V27h.07l.06.06.26.13.06.07.13.06.32.07.9.06v-.06l.13-.07.13-.13.06-.7-1-.07-.12-.06h-.13v-.13l-.07-.06h-.06v-.39h-.06V20.7L44,20.63H44v-.12l-.13-.07-.06-.06-.33-.07Zm9.23-.06-.07.06-.12.07-.07.13-.06.06-.07.25.07.07v.19H52v.13h.07l.12.13.13.06.52.07V21.4l.06-.06.13-.07.06-.06.07-.13.06-.51L53,20.31l-.12-.06ZM41.07,16.47l-.7.06-.39.13-.06.06-.13.07-.12.13-.13.38.06.07v.19h.07v.13h.06l.19.19.19.05.13.07,1,.07V18l.25-.12.07-.13.06-.06.07-.13.06-1.09Zm-4.55-2.76-.19.07L36,14l-.32.32-.07.13-.06.06-.26.51-.06.33-.06.57v2.5h.06v.26h.06v.13h.07l.12.12.71.07V16l.06-.7.13-.38.13-.07.13-.13.13-.06h.76l.2.06.06.06.26.14V14.1L37.93,14h-.06v-.12l-.13-.07-.06-.06-.2-.07Zm7.82-.06v3.84h.07v.39h.06v.25h.06v.13h.07v.13h.06l.07.06v.13h.06l.38.2.07.06.32.06.77.07V18.9l.13-.06.06-.13.06-.64L45.82,18l-.13-.07h-.13v-.12H45.5v-.12h-.07v-.32h-.06V14.1L45.3,14h-.06v-.12l-.07-.07-.12-.06L45,13.71l-.32-.06Zm14.29-.07-.25.07-.2.06-.38.2-.06.06-.13.06-.26.26-.26.51-.06.39.06.06v.32h.07v.19h.06v.13h.07l.25.26.39.18.19.07.26.07.19.06.32.07.25.06.39.13.26.13.12.12v.13H60l-.07.52-.25.24-.2.07-1.34.07V18l-.26-.12-.19-.07-.13-.06-.06-.06-.13-.07-.13-.13h-.13V18h.07v.26h.06v.13h.07l.12.06.2.2.25.13.2.06.25.06,1,.07V18.9l.45-.06.63-.32.33-.32.13-.27.06-.18L61,17h-.06v-.25h-.06v-.13l-.13-.13h-.07V16.4l-.06-.07-.26-.12-.06-.06L60,16,59.85,16l-.77-.19-.19-.06-.26-.06-.13-.07-.19-.06-.13-.13h-.06v-.19l-.06-.07.06-.19.06-.13.2-.19.12-.07.26-.06.51-.06h.13l.58.06.51.25.06.07.13.07.07.06.13.06v-.7h-.07v-.13l-.39-.38-.57-.2Zm-18.58-.06-.32.06-.51.26-.39.39-.13.38v.51l.13-.06.32-.33.26-.12.19-.07.13-.06.25-.06h1.16l.38.19.07.06v.13h.06l.07.07V15h.06v.65h-.71l-.77.06-.32.06-.38.13-.38.19-.45.45-.13.26-.06.19-.07.45.07.06v.32h.06V18h.06v.13h.07l.06.07v.13h.07l.12.12.13.07.07.06.19.07.38.19.39.06,1.15.07V18.9l.51-.12.26-.13.13-.13.13-.07.06-.06.06-.13.07-.06.06-.13.07-.19.06-.26.06-2.69h-.06v-.26h-.06v-.13h-.07v-.12h-.06v-.13l-.19-.19h-.07V14l-.13-.06L42,13.78l-.13-.07-.19-.06-.13-.07-.32-.06Zm-19-.45-.45.06v2.12h.45l1.35.07v-.07l.25-.13.2-.06.32-.33.06-.19.06-.7h-.06v-.19l-.32-.32-.26-.13-.19-.07L22,13.07Zm11-.51-.25.06-.13.07-.19.19-.13.06-.06.19-.07.13-.06.19-.07.33v3.46h.07v.45h.06V18h.07v.13h.06v.13h.06l.07.07v.12h.06v.13h.13l.13.07.06.06.26.13.32.06,1,.07V18.9l.19-.06.13-.06.06-.13.07-.07.06-.7H33.9l-.07.05-.12.07-1,.07V18l-.25-.12-.07-.07h-.06v-.12H32.3v-.13h-.07v-.45h-.06V14.54l1.47-.06.13-.06h.13v-.13l.06-.06.07-.65H32.17v-1Zm16.41-.06-.26.06-.13.06-.19.2-.13.06-.19.38-.06.45v3.46h.06v.58h.07V18h.06v.13h.06v.13h.07l.06.07v.12H48v.13h.12l.13.07.07.06.25.13.32.06,1,.07V18.9l.26-.12.19-.2.06-.7H50.3l-.06.05-.13.07-1,.07V18L49,17.93l-.13-.12h-.07v-.12H48.7v-.13h-.06v-.45h-.07V14.48l1.54-.06.13-.07.12-.12.07-.65H48.57V12.5Zm-26.66-.33-.9.07-.51.06-.51.13-.32.07v5.89h.06v.32h.07l.19.19.7.07V16.08H21l.77.07.32.06.06.07.13,0,.26.27v.12h.06l.06.07v.13h.07V17h.06v.13h.07v.2h.06v.12H23v.13h.07v.13h.06v.18h.07v.14h.06v.13h.06v.13h.07v.19h.06l.07.06v.13h.06l.06.07.26.12.9.07v-.13l-.07-.06h-.06v-.13l-.06-.07h-.07v-.13l-.06-.06h-.07V18.2h-.06v-.13h-.06v-.19h-.07v-.13h-.06v-.13h-.07v-.19H24V17.3H24v-.19H23.9V17h-.06v-.13h-.07v-.19h-.06v-.13l-.07-.06h-.06v-.14L23.2,16l-.39-.19.58-.19.25-.13.13-.12.13-.07.07-.06.06-.13.06-.07.13-.26.07-.25.06-.9h-.06v-.19h-.07v-.13h-.06v-.13l-.07-.06H24v-.13l-.26-.25-.25-.13-.07-.06-.13-.07-.19-.06L23,12.3l-.32-.06-.7-.07Zm22.75-.38-.13.06-.13.13-.06.13-.07.26.07.06v.26h.06l.07.06v.13h.12l.07.06.57.07v-.07l.07-.06.13-.06.06-.07.07-.13.06-.51-.26-.26-.13-.06Z"/><g class="cls-7"><rect class="cls-4" x="19.61" y="11.79" width="48.83" height="17.24"/></g><path class="cls-2" d="M30.63,0,30.5.06l-.13.07-.06.06L29.8.45l-.07.06L29.6.58l-.06.06-.26.13-.06.06L29.09.9,29,1,28.9,1l-.06.06-.13.06-.13.13-.13.06-.06.07-.13.06-.19.2-.13.06-.13.13-.13.06-.19.19-.13.07-.45.45-.13.06L25.06,4.42,25,4.55,24.54,5l.64.06V5l.58-.07.51-.06.45-.07.39-.06.44-.06.26-.07,1.28-.25.77-.19.19-.07L30.31,4l.58-.2L31,3.78l.2-.06.25-.13.2-.07.25-.12.19-.07.26-.13.19-.06.13-.06L32.74,3l1.16-.57L34,2.37l.13-.06.06-.07.26-.13.06-.06L34.6,2l.07-.07.25-.12L35,1.73l.13-.06.06-.07.13-.06.12-.13.13-.07.13-.12.13-.07L36,1,36.08,1l.19-.19L35.88.64,35.63.58l-.2-.07L34.92.38,34,.19,33.58.13,32.42,0ZM28.71,0,28,.06l-.51.07L26.14.31l-1,.2L24.8.58l-.26.06L24.22.7l-.77.2L23.13,1,22.94,1l-.51.12-.19.07L22,1.28l-.19.06-.26.07-1.35.45-.12.06-.39.13-.13.06-.19.07-.13.06L19,2.31l-.13.06-.19.07-.26.12-.19.07L18,2.75l-.2.07L17.43,3l-.19.07L14.55,4.42l-.07.06-.38.2L14,4.74l-.38.19L13.58,5l-.25.12-.07.07-.12.06-.07.07-.25.13-.07.06-.13.06-.06.07-.26.13-.06.06-.13.06L12.05,6,11.92,6l-.07.07-.12.06-.07.06-.13.07-.12.13-.13.06-.07.06-.13.07L11,6.66l-.13.06-.12.14-.13.06-.13.13-.13.06-.06.07-.13.06-.13.13-.13.06-.19.19-.13.07-.19.19L9.29,8l-.19.19L9,8.2l-.25.26-.13.06-.32.32-.13.07-.39.38-.13.07L5.38,11.6l-.06.13-.19.19-.07.13-.25.25-.07.13-.25.26-.07.13-.13.12-.06.13-.13.13L4,13.33,4,13.39l-.06.13-.13.13-.06.13-.07.06L3.59,14l-.13.13-.06.13-.07.06-.13.25-.06.07-.06.12L3,14.8l-.13.26-.06.06-.06.13-.07.07-.19.38-.07.06-.32.64-.06.07-.32.64-.06.19-.32.63-.07.2-.06.13-.07.19-.06.13-.07.2L1,18.9l-.13.39-.06.13-.13.38-.06.26-.26.76-.06.32-.26,1,1.35.07v-.07l.57-.06L2.43,22,2.76,22,3,21.91l.64-.12L4,21.66l.25-.06,1-.33.12-.06.2-.07.12-.06L5.9,21,6,21l.19-.06.13-.07.2-.06,2.05-1,.06-.07L9,19.48l.06-.06.38-.2.07-.06L9.8,19,9.87,19l.26-.13.06-.06.13-.07.06-.06.13-.07.06-.06.13-.07.07-.06.12-.06.07-.07.12-.06.07-.07.13-.06.06-.07.13-.07.06-.05.13-.07.07-.06.12-.06.07-.07.13-.06.06-.07.13-.06.13-.13.13-.06.19-.2.13-.06.19-.19.13-.07.32-.32.12-.07L14,16l.13-.06,1.79-1.79L16,14l.64-.64.06-.13.45-.45.06-.13.39-.38.06-.13.26-.26.06-.12.26-.26.06-.13.26-.26.06-.12.19-.2.07-.12.13-.13.06-.13.19-.19.07-.13.19-.19.06-.13.2-.19.06-.13L20,9.23l.07-.13.19-.19.06-.13.19-.19.07-.13.26-.26.06-.13.19-.19.07-.13.25-.25.07-.13.25-.26L21.79,7,22,6.72l.07-.12.25-.26.07-.13L22.68,6l.07-.13L23,5.57l.07-.12.13-.07.12-.13.07-.13.25-.25.07-.13.51-.51.07-.13L26,2.37l.12-.06.39-.39.13-.06.25-.26L27,1.54l.26-.26.13-.06.12-.13L27.68,1,27.75,1,27.87.9,28,.77,28.13.7l.13-.12.26-.13.06-.07L29,.19,29,.13,29.28,0Z"/><g class="cls-8"><rect class="cls-4" width="36.26" height="22.24"/></g></g></g></svg>