<?xml version="1.0" encoding="utf-8"?>
<!-- Generator: Adobe Illustrator 16.0.0, SVG Export Plug-In . SVG Version: 6.00 Build 0)  -->
<!DOCTYPE svg PUBLIC "-//W3C//DTD SVG 1.1//EN" "http://www.w3.org/Graphics/SVG/1.1/DTD/svg11.dtd">
<svg version="1.1" id="Layer_1" xmlns="http://www.w3.org/2000/svg" xmlns:xlink="http://www.w3.org/1999/xlink" x="0px" y="0px"
	 width="2337.271px" height="960px" viewBox="-557.729 0 2337.271 960" enable-background="new -557.729 0 2337.271 960"
	 xml:space="preserve">
<g>
	<path fill="#FFFFFF" d="M1726.103,698.533c0,0-206.211,75.484-638.775,52.991c43.064,2.188-202.375-4.49-476.425-16.147
		c-271-11.541-524.273-18.35-476.445-15.904c-443.705-22.651-638.709,53.567-638.709,53.567l-0.032-515.555
		c0,0,260.336-75.465,667.437-52.99c14.419,0.832,94.792,2.238,202.373,5.707c73.454,2.351,159.646,5.676,246.126,10.47
		c212.926,11.718,431.781,18.062,448.359,18.942c417.666,22.62,666.096-56.62,666.096-56.62V698.53h-0.004V698.533z
		 M1712.528,140.301c-2.428,0.784-246.971,76.441-650.092,54.623c0.049,0-38.889-1.439-38.889-1.439
		c-6.699-0.241-188.278-9.369-396.585-18.048c-186.546-7.754-394.661-14.946-518.085-19.039
		c-368.654-12.214-614.732,54.909-625.651,58.026l-32.321,9.4v614.307l60.984-23.371c1.854-0.702,194.462-72.301,620.247-50.578
		l0.032-0.413c25.944,0.098,247.726,6.633,476.846,16.337c146.12,6.267,273.252,10.63,335.964,12.612l106.445,3.195l29.717,0.702
		l8.359,0.114c0.717,0,1.375-0.178,2.061-0.178c432.164,21.595,641.186-52.8,649.982-55.947l29.361-10.778V121.869L1712.528,140.301
		L1712.528,140.301z"/>
	<path fill="#FFFFFF" d="M1488.896,611.875c-51.73,0.578-83.125-41.079-87.488-45.045c-10.887,26.567-21.311,51.76-32.18,77.898
		c0,0,47.094,48.101,139.15,34.609c92.076-13.621,119.441-82.76,118.502-128.463c-1.041-45.701-22.797-69.054-63.113-94.144
		c-27.078-16.479-40.971-24.553-67.455-39.037c-14.898-9.464-19.568-12.26-19.309-28.676c0.572-15.668,11.57-31.125,36.332-35.49
		c26.953-4.139,45.623,11.767,55.904,21.532c13.697,12.979,15.951,20.781,15.951,20.781l24.73-83.843c0,0-4.428-3.901-6.635-5.898
		c-28.693-24.538-65.123-30.563-116.006-16.928c-71.357,24.09-102.434,86.112-104.078,138.113
		c1.789,42.042,25.748,56.739,50.049,72.087c27.35,15.665,80.932,47.604,81.061,47.604c0,0,20.686,10.726,21.324,26.919
		C1535.571,595.506,1519.075,608.807,1488.896,611.875L1488.896,611.875z"/>
	<path fill="#FFFFFF" d="M-321.481,525.745c0,0,29.989-75.855,47.654-118.603c11.892,37.981,33.105,108.549,33.105,108.549
		L-321.481,525.745L-321.481,525.745z M-294.371,294.911c0,0-102.37,242.796-158.783,369.619
		c27.783-5.481,58.06-9.526,85.874-15.725c7.482-17.14,26.472-65.525,26.472-65.525l115.957-13.827c0,0,20.669,51.696,27.703,69.73
		c45.35-3.613,60.231-4.411,104.944-6.203c-44.901-121.011-135.123-344.911-135.123-344.911L-294.371,294.911L-294.371,294.911z"/>
	<path fill="#FFFFFF" d="M171.686,289.315c0.095,65.301,0.207,130.488,0.32,200.88C112.38,419.052,55.408,353.672-4.184,287.7
		c-23.21-0.319-45.415-1.519-68.593-2.045c0.111,110.536,0.111,221.451,0.178,347.385c24.104-0.351,71.326,1.693,71.326,1.693
		s0-132.967,0-197.361c55.227,65.258,163.161,199.23,163.161,199.23l80.04,2.702l-0.049-346.795
		C241.876,292.514,195.472,289.556,171.686,289.315L171.686,289.315z"/>
	<path fill="#FFFFFF" d="M513.245,488.854c-2.207,33.856-2.909,58.057-28.23,78.871c-27,22.283-71.936,11.846-82.215,11.509
		c0-0.048-0.079-225.786-0.079-225.786c7.481,0.673,14.593,1.263,22.028,1.918C482.456,361.331,516.006,426.038,513.245,488.854
		L513.245,488.854z M427.545,292.241c-39.469-3.581-121.698-5.563-121.698-5.563c0,113.255-0.016,230.278-0.08,355.762
		c0.08,0,86.832,2.094,124.272,4.86c57.418,3.804,105.216-13.009,138.975-45.255c28.438-28.341,43.228-64.789,44.136-109.45
		C614.304,379.234,544.352,304.551,427.545,292.241L427.545,292.241z"/>
	<path fill="#FFFFFF" d="M826.011,448.706c-10.293,10.82-26.87,16.913-41.4,17.824c-14.53,0.862-17.679,0.399-22.108,0.48
		c0-35.424,0.353-69.329,0.353-104.977c0,0,9.366,0.496,15.184,0.574c37.408,2.303,59.595,21.613,61.834,50.865
		C839.618,427.046,834.854,439.132,826.011,448.706L826.011,448.706z M863.626,507.589c0,0,7.706-2.414,16-6.568
		c14.962-7.562,51.216-27.664,54.636-85.098c3.984-66.483-51.311-107.934-118.354-113.209
		c-50.737-3.389-148.792-5.801-148.792-5.801V657.68c32.595,1.628,63.767,1.023,96.361,2.59c0-54.048,0.082-105.937,0.242-160.351
		c40.969,64.425,80.211,125.566,121.233,187.589c30.582-16.593,58.488-32.274,89.119-48.516
		c-36.561-42.632-98.101-121.361-102.419-125.42C867.431,509.476,864.123,508.131,863.626,507.589L863.626,507.589z"/>
	<path fill="#FFFFFF" d="M1236.628,494.112c0,72.269-33.809,130.841-75.562,130.841c-41.787,0-75.561-58.574-75.561-130.841
		c0-72.326,33.773-130.942,75.561-130.942C1202.819,363.168,1236.628,421.786,1236.628,494.112L1236.628,494.112z M980.128,494.112
		c0,107.039,81.014,193.871,180.938,193.871c99.959,0,181.02-86.832,181.02-193.871c0-107.144-81.061-193.976-181.02-193.976
		C1061.142,300.137,980.128,386.969,980.128,494.112L980.128,494.112z"/>
	<path fill="#FFFFFF" d="M1673.284,226.654c16.018,0,28.889,12.804,28.889,28.966c0,16.305-12.869,29.11-28.889,29.11
		c-16.223,0-29.143-12.804-29.143-29.062C1644.142,239.522,1657.062,226.654,1673.284,226.654L1673.284,226.654z M1673.284,288.821
		c18.176,0,33.027-14.884,33.027-33.203c0-18.303-14.852-33.058-33.027-33.058c-18.385,0-33.297,14.755-33.297,33.106
		C1639.987,273.939,1654.903,288.821,1673.284,288.821L1673.284,288.821z"/>
	<path fill="#FFFFFF" d="M1664.925,241.823h10.74c4.445,0,9.736,0.654,9.736,5.388c0,6.763-8.23,5.865-13.316,5.865h-7.16V241.823
		L1664.925,241.823z M1664.925,257.234h8.504l10.391,16.688h5.291l-10.949-16.688c6.41-0.191,11.303-2.863,11.303-9.959
		c0-6.012-3.262-9.56-12.867-9.56h-15.67v36.206h3.998V257.234L1664.925,257.234z"/>
</g>
<title>Fichier 2</title>
</svg>
