<svg xmlns="http://www.w3.org/2000/svg" viewBox="0 0 34.1 33.17"><defs><style>.cls-1,.cls-2{fill:#fff;}.cls-2{fill-rule:evenodd;}</style></defs><title>Fichier 1</title><g id="Calque_2" data-name="Calque 2"><g id="Calque_5" data-name="Calque 5"><path class="cls-1" d="M24.8,17a10.57,10.57,0,0,1,1.29-.16l1.11-4L23,17.47A11.77,11.77,0,0,1,24.8,17Zm5.47.2a21.14,21.14,0,0,0-2.85.36l-.25.87-.58,2-1.71.65.78-2.67.14-.51a23.61,23.61,0,0,0-5.07,1.63l.47-1.12L29,9.82l.72-.25-2.06,7.21c1,0,2,.07,2.75.14ZM20.1,15.94c-.9,2.89-2.3,3.8-3.15,3.6s-1.15-1.77-.46-4.23,2.26-3.41,3.1-3.24S20.82,13.6,20.1,15.94Zm2-8.08a13.73,13.73,0,0,0-4.3,2.58,9.16,9.16,0,0,0-3,4.62c-.33,1.39-.21,4.79,2.08,4.86s3.86-1.86,4.57-4,.24-4-1.75-4.2a4.21,4.21,0,0,0-2.14.66,8.58,8.58,0,0,1,1.72-2.31A18.42,18.42,0,0,1,22.22,7.9Z"/><path class="cls-2" d="M26.54,14.3,24.2,16.85l-.43.11,2.92-3.19C26.64,13.94,26.59,14.11,26.54,14.3Z"/><polygon class="cls-2" points="27.97 16.52 29.84 9.98 30.05 9.91 28.16 16.53 27.97 16.52"/><path class="cls-2" d="M25.42,18.3l0,.08a21.6,21.6,0,0,0-4.32,1.46l.12-.3a23.28,23.28,0,0,1,4.25-1.35Z"/><path class="cls-2" d="M16.73,15.36c.68-2.43,2.16-3.2,2.81-3.06a.47.47,0,0,1,.22.09c-.87,0-2.28,1-2.92,3.26a7.34,7.34,0,0,0-.32,3.11A6.06,6.06,0,0,1,16.73,15.36Z"/><path class="cls-2" d="M22,13.48a4.31,4.31,0,0,1-.14,2.81c-.71,2.11-2.27,4-4.57,4a1.78,1.78,0,0,1-.67-.13,1.66,1.66,0,0,0,.32,0A4.17,4.17,0,0,0,20,18.92,7.29,7.29,0,0,0,21.78,16,5.13,5.13,0,0,0,22,13.48Z"/><path class="cls-2" d="M18.67,11.66a2.74,2.74,0,0,0-.4.15,9.66,9.66,0,0,1,1.27-1.54A17.87,17.87,0,0,1,21.7,8.52c.48-.21.79-.32.79-.32l.08,0a18.82,18.82,0,0,0-2.85,2.22A9.45,9.45,0,0,0,18.67,11.66Z"/><path class="cls-2" d="M30.44,17.42l0,.13a24.67,24.67,0,0,0-2.63.34l-.25.87-.58,2-1.71.65.07-.24,1.49-.57.62-2.08s.13-.48.21-.73a24.42,24.42,0,0,1,2.67-.33Z"/><path class="cls-2" d="M30.86,17.1v.07h.06s0,0,0-.05,0,0-.06,0Zm.11.12s.07,0,.07-.08S31,17,30.91,17H30.8v.32h.06v-.13h0l.08.13h.08Zm-.27,0a.22.22,0,0,0,.21.23h0a.22.22,0,0,0,.21-.23.21.21,0,1,0-.42,0Zm-.08,0a.3.3,0,0,0,.59,0,.3.3,0,0,0-.59,0Z"/><path class="cls-1" d="M5.07,10.89l0-.08a13,13,0,0,1,3-1l-3,9.55L3.41,20,6,11.43c.06-.19.23-.79.23-.79C5.91,10.69,5.07,10.89,5.07,10.89Z"/><path class="cls-1" d="M12.2,11.76a4.21,4.21,0,0,0-2.14.66,8.66,8.66,0,0,1,1.71-2.31A18.78,18.78,0,0,1,14.63,7.9l-.08,0a13.63,13.63,0,0,0-4.29,2.58,9.16,9.16,0,0,0-3,4.62c-.33,1.39-.21,4.79,2.09,4.86s3.85-1.86,4.56-4S14.19,11.94,12.2,11.76Zm.31,4.18c-.9,2.89-2.3,3.8-3.15,3.6s-1.15-1.77-.46-4.23,2.26-3.41,3.1-3.24S13.23,13.6,12.51,15.94Z"/><path class="cls-2" d="M8.23,10.19l.21,0-3,9.56-1.72.65.08-.25,1.49-.57Z"/><path class="cls-2" d="M14.44,13.48a4.38,4.38,0,0,1-.14,2.81c-.71,2.11-2.27,4-4.57,4a1.78,1.78,0,0,1-.67-.13,1.66,1.66,0,0,0,.32,0,4.17,4.17,0,0,0,3-1.23A7.18,7.18,0,0,0,14.19,16,5.13,5.13,0,0,0,14.44,13.48Z"/><path class="cls-2" d="M17,4.61c-9.4.25-17,5.21-17,11.1S7.61,26.17,17,25.92s17-5.22,17-11.1S26.4,4.36,17,4.61Zm.07,21.06c-8.61,0-15.6-4.65-15.6-10.4s7-10.4,15.6-10.4,15.6,4.66,15.6,10.4S25.7,25.67,17.08,25.67Z"/><path class="cls-2" d="M16.21,22.45a2.91,2.91,0,0,1-.42,0s0-.05.05-.19,0-.14,0-.15,0,0,.05,0v.05H16s0,0,0-.05.07,0,.07,0,0,0,0,0h.05s0,0,0,0h.08a.14.14,0,0,1,0,.09A.88.88,0,0,0,16.21,22.45Z"/><path class="cls-2" d="M16.24,22.27a1.13,1.13,0,0,0,.26,0,.66.66,0,0,0-.05-.15l0-.05s.08,0,.09,0,0-.07,0-.08h-.05v0h0s0,0,0,0h-.07s0,.05,0,.05h0s0,0,0-.05-.07,0-.07,0,0,0,0,0,0,0,0,0h-.06a.07.07,0,0,0,0,.09s.06,0,.09,0v0S16.24,22.27,16.24,22.27Z"/><path class="cls-2" d="M15.79,22.26h-.26s0,0,0-.13v0s-.05,0-.06,0a.06.06,0,0,1,0,0s0-.07,0-.08a0,0,0,0,1,0,0,0,0,0,0,1,0,.05h0s0,0,0-.05.07,0,.07,0,0,0,0,0h0s0-.05,0-.06.06,0,.06,0,0,0,0,0,0,0,0,0h.05a.26.26,0,0,1,0,.12h-.07S15.79,22.26,15.79,22.26Z"/><path class="cls-2" d="M15.89,23.06s-.05,0-.06,0a.15.15,0,0,1,0-.1s0-.05,0-.08v0a.25.25,0,0,1,0-.09.7.7,0,0,1,0-.12s0,0,0-.06,0-.05,0-.06h.08s0,0,0,0,0,0,0,0,0,0,0,0H16s0,.06,0,0,0,0,0,0l0,0s.06,0,.06,0,0,0,0,.05h0s0,0,0,0,0,0,0,0,.07,0,.07,0,0,.05,0,.07v.05a.24.24,0,0,1,0,.1.41.41,0,0,1,0,.1l0,.12a0,0,0,0,0,0,.05s0,.06,0,0a.08.08,0,0,1-.07,0,1.36,1.36,0,0,1,0-.17h-.12s0,.06,0,.07A.52.52,0,0,1,15.89,23.06Z"/><path class="cls-2" d="M16.39,22.9c0,.05,0,.13,0,.13s0,0,0,0a0,0,0,0,1-.06,0s0,0,0,0h0s.07-.41.1-.55v0s0,0-.06,0v0s0-.08,0-.09,0,0,.05,0v0h0s0,0,0-.05h.07s0,.05,0,.05h0s0,0,0-.05h.06s0,0,0,0a0,0,0,0,0,0,0h.05a.16.16,0,0,1,0,.12s0,0-.06,0,.09.6.09.6,0,0,0,0-.1,0-.11,0,0-.05,0-.05,0,0,0-.1S16.39,22.87,16.39,22.9Z"/><path class="cls-2" d="M15.53,22.81c0,.05,0,.21,0,.21v0a0,0,0,0,1-.08,0s0,0,0,0h0a5.51,5.51,0,0,1,.09-.56v0s0,0-.07,0v0s0-.07,0-.08,0,0,.05,0v.05h.05s0,0,0,0h.08s0,.05,0,.05h0s0,0,0-.05h.07s0,0,0,0,0,0,0,0,0,0,0,0a.17.17,0,0,1,0,.12h-.07s.1.6.09.61h0l0,0a0,0,0,0,1-.08,0V23c0-.07,0-.12,0-.18S15.53,22.79,15.53,22.81Z"/><path class="cls-2" d="M16.44,21.63a.08.08,0,0,1-.06,0l0,0-.18,0a1,1,0,0,0-.24,0h0l-.11,0h0l0,0,0,0s-.07,0-.07,0,0,0,.05,0h0l.05,0h.08l.13,0h.24l.08,0,.07,0a.26.26,0,0,1,.13.09s0,0,0,0Z"/><path class="cls-2" d="M16.45,21.35l0,0s0,0,0,0,0,0,0,0a.07.07,0,0,1,.07,0s0,.06,0,.07-.1-.05-.18-.08S16.42,21.36,16.45,21.35Z"/><path class="cls-2" d="M16.23,21.29s0,0,0,0,0,0,0,0,0,0,0,0,.05,0,.05,0,0,.07,0,.07-.1,0-.16,0a.22.22,0,0,1,0-.08S16.23,21.28,16.23,21.29Z"/><path class="cls-2" d="M16,21.25l.09,0s0,0,0,0,0,.06,0,.08-.12,0-.15,0A.07.07,0,0,1,16,21.25Z"/><path class="cls-2" d="M15.73,21.31s.06,0,.07,0h0s0,0,.05,0,0,.06,0,.08a.34.34,0,0,1-.16,0s0-.05,0-.08Z"/><path class="cls-2" d="M15.51,21.43a.1.1,0,0,1,0-.06s0,0,0,0l0,0a0,0,0,0,1,0,0s0,.06,0,.08-.05,0-.09,0h0s0,0-.06,0-.06-.06,0-.08Z"/><path class="cls-2" d="M16,21.61a.38.38,0,0,1,.18,0,.21.21,0,0,1,.11,0s0,0,0,0,0,0-.06,0a.91.91,0,0,1-.23,0l-.21,0-.1-.05s0,0,0,0A.48.48,0,0,1,16,21.61Z"/><path class="cls-2" d="M19.33,21.92h0s-.06.11-.1.1-.13,0-.13-.06a.31.31,0,0,1,.08-.15Zm-1.1.14h-.08a1,1,0,0,1-.14-.15v0h0l.06,0,.06,0h0l0,0,0,.05,0,.06,0,0s0,0,0,.06Zm.7.74a2.43,2.43,0,0,0-.27,0c-.06,0-.12,0-.19,0l0,0H18.4l0,0s0,0,0,0h0a0,0,0,0,0,0,0s0,0,0,0l.12,0h.08a2.58,2.58,0,0,0,.48,0h.07l0,0a0,0,0,0,1,0,0s0,0,0,0h0l0,0S19,22.8,18.93,22.8Zm-.11-.1h0s0-.06,0-.09l0,0s-.08,0-.09,0a.06.06,0,0,0,0,0h-.07s0,0,0-.05h-.08s0,.06,0,.07S18.75,22.69,18.82,22.7Zm.25,0s0-.05,0-.08-.05,0-.08,0,0,.06,0,.09S19,22.7,19.07,22.68ZM19,22.52s.07,0,.08,0,0-.06,0-.07H19s0,0,0,0S19,22.52,19,22.52Zm-.12,0s0-.07,0-.08a.11.11,0,0,0-.08,0s0,0,0,.07S18.84,22.54,18.86,22.52Zm-.3,0s0,0,0,0,.09,0,.1,0,0-.06,0-.07-.07,0-.09,0a0,0,0,0,1,0,0A.1.1,0,0,0,18.56,22.5Zm-.23.11a.06.06,0,0,0,0,.07h.06a0,0,0,0,0,.05,0s0,0,0-.06-.09,0-.12,0S18.33,22.6,18.33,22.61Zm0-.11s.1,0,.11,0,0-.05,0-.07-.08,0-.1,0S18.35,22.48,18.35,22.5Zm-.2-.77a.06.06,0,0,1,.06.05s.09.14.1.18a.11.11,0,0,1,0,.11s0,0,0,.05a.08.08,0,0,0,0,.05s0,0,0,0,0,0,0,0a.15.15,0,0,0,.07,0,0,0,0,0,0,0,0,.28.28,0,0,1,0-.09s0,0,0,0,0,0,0,0,0,0,0,0l-.07-.07h0s-.07-.12-.06-.12,0,0,0,0,0-.05,0-.06h0s0,.06,0,.05,0,0,0,.05,0,0,0,0,0-.08,0-.09a0,0,0,0,0,0,0s0,0,0,0,0,0,0,0a.07.07,0,0,1,0,.05s0,0,0,0,0,0,0,.06,0,0,0,.05,0,0,0,0,0,.1,0,.15a0,0,0,0,0,0,0s0,0,0,0a.38.38,0,0,0,0,.21,0,0,0,0,0,0,0,0,0,0,0,0,0,0,.1.1,0,0,0,0-.09s0,0,0,0a.08.08,0,0,1,.07,0,.44.44,0,0,0,0-.18.62.62,0,0,0,0-.1.68.68,0,0,1,0-.19.08.08,0,0,0,0-.07s0,0,0,0a.19.19,0,0,1,0,.08h0a.33.33,0,0,0,0-.1s0,0,0,0a.27.27,0,0,0,0,.09h0s0-.1,0-.1,0,0,0,0a.37.37,0,0,0,0,.09h0s0-.06,0-.07,0,0,0,0l0,.12a1.06,1.06,0,0,0-.05.23.41.41,0,0,0,0,.2s0-.05.07-.05,0,0,0,0a1,1,0,0,0,0-.16.12.12,0,0,0,0-.08.31.31,0,0,1,0-.08.53.53,0,0,1,0-.12s0-.08,0-.11h0s0,.09,0,.09h0a.2.2,0,0,0,0-.08s0,0,0,0a.45.45,0,0,1,0,.08s0,0,0,0,0-.06,0-.07,0,0,0,0,0,0,0,0l0,.06a.1.1,0,0,0,0,0s0,0,0,.06a.54.54,0,0,1-.09.12l0,.08s0,0,0,0a.19.19,0,0,0,0,.13s0,0,.07,0H19a.16.16,0,0,0,0-.09S19,22,19,22a.77.77,0,0,1,.14-.25s0,0,.05,0a1.81,1.81,0,0,1,.27.18.5.5,0,0,1-.12.21.08.08,0,0,1-.08,0,.24.24,0,0,0-.12,0,1.19,1.19,0,0,0-.08.2s.05,0,.07.05,0,.07,0,.11,0,.09,0,.14,0,.14,0,.14,0,.14,0,.18a1,1,0,0,1-.52.09c-.51,0-.56-.08-.56-.1a.3.3,0,0,1,0-.21c0-.05,0-.12,0-.19s0-.11,0-.16.06,0,.08,0a.1.1,0,0,1,0,0,.58.58,0,0,0-.1-.12s-.07,0-.1,0a.79.79,0,0,1-.17-.2.08.08,0,0,1,0-.05S18.13,21.73,18.15,21.73Z"/><path class="cls-1" d="M18.67,24.14h0a.07.07,0,1,0-.07-.07A.07.07,0,0,0,18.67,24.14Z"/><path class="cls-1" d="M19,24.11h0s.07,0,.06-.08a.07.07,0,0,0-.09-.05.06.06,0,0,0-.05.08A.08.08,0,0,0,19,24.11Z"/><path class="cls-1" d="M19.22,24h0a.07.07,0,0,0,0-.09.06.06,0,0,0-.09,0,.07.07,0,0,0,0,.09A.05.05,0,0,0,19.22,24Z"/><path class="cls-1" d="M19.46,23.88h.05a.08.08,0,0,0,0-.1.07.07,0,0,0-.1,0,.06.06,0,0,0,0,.09A.05.05,0,0,0,19.46,23.88Z"/><path class="cls-1" d="M17.85,21.52a.07.07,0,0,0,0,.1l.05,0h.05a.08.08,0,0,0,0-.1A.07.07,0,0,0,17.85,21.52Z"/><path class="cls-1" d="M19.94,22.22a.07.07,0,0,0,0,.09s0,0,.06,0h0a.07.07,0,0,0,.05-.09A.08.08,0,0,0,19.94,22.22Z"/><path class="cls-1" d="M17.63,21.72a.08.08,0,0,0,0,.1l0,0a.09.09,0,0,0,.06,0,.07.07,0,1,0-.11-.09Z"/><path class="cls-1" d="M18.14,21.5h0a.07.07,0,0,0,0-.09s-.05,0-.09,0a.06.06,0,0,0,0,.09A.07.07,0,0,0,18.14,21.5Z"/><path class="cls-1" d="M18.09,24h0a.06.06,0,0,0,.06,0,.07.07,0,0,0,0-.09.08.08,0,0,0-.1,0,.08.08,0,0,0,0,.1Z"/><path class="cls-1" d="M18.37,24.11h0a.07.07,0,0,0,0-.14h0a.07.07,0,0,0-.09.05A.09.09,0,0,0,18.37,24.11Z"/><path class="cls-1" d="M17.87,23.86l.06,0a.07.07,0,1,0-.11-.09.07.07,0,0,0,0,.1Z"/><path class="cls-1" d="M19.74,21.84a.08.08,0,0,0,0-.1h0a.08.08,0,0,0-.1,0,.07.07,0,0,0,0,.1.05.05,0,0,0,.05,0Z"/><polygon class="cls-1" points="19.95 22.57 19.95 22.57 19.95 22.57 19.95 22.57"/><path class="cls-1" d="M20.08,22.56a.07.07,0,0,0-.13,0s0,.06.07.06h0a.06.06,0,0,0,.06-.07Z"/><path class="cls-1" d="M20,22.78s-.07,0-.08.06a.08.08,0,0,0,.07.08h0a.07.07,0,0,0,.07-.06A.06.06,0,0,0,20,22.78Z"/><path class="cls-1" d="M18.48,21.33a.08.08,0,0,0-.09-.06.07.07,0,0,0-.05.08.07.07,0,0,0,.07.06h0S18.49,21.36,18.48,21.33Z"/><path class="cls-1" d="M19.54,21.63a.07.07,0,0,0,0-.1.08.08,0,0,0-.1,0,.07.07,0,0,0,0,.09.05.05,0,0,0,0,0A.05.05,0,0,0,19.54,21.63Z"/><path class="cls-1" d="M18.7,21.38a.07.07,0,0,0,0-.14h0a.08.08,0,0,0-.07.07.07.07,0,0,0,.07.07h0Z"/><path class="cls-1" d="M19,21.41a.08.08,0,0,0,.07-.05s0-.07-.06-.08a.07.07,0,0,0-.08,0,.06.06,0,0,0,.05.08Z"/><path class="cls-1" d="M19.82,22a.07.07,0,0,0,0,.09.07.07,0,0,0,.06,0h0a.08.08,0,0,0,0-.09A.07.07,0,0,0,19.82,22Z"/><path class="cls-1" d="M19.31,21.47a.06.06,0,0,0,0-.09.07.07,0,0,0-.1,0,.07.07,0,0,0,0,.09h0A.08.08,0,0,0,19.31,21.47Z"/><path class="cls-1" d="M12.6,23.57h1.85a1.82,1.82,0,0,0,1.54.84,1.8,1.8,0,0,0,1.35-.58,1.84,1.84,0,0,0,2.89-.26h1.91v-.06H12.6Zm6.64,0a1.06,1.06,0,0,1-1.12,0Zm-1.7,0h.07a.09.09,0,0,0,0,.07h0a.09.09,0,0,0,.06,0l0,0a.07.07,0,0,0,0-.08h.35a.89.89,0,0,0,.59.23.91.91,0,0,0,.6-.23h.35a.07.07,0,0,0,0,.1l0,0,.06,0a.08.08,0,0,0,0-.1H20a1.59,1.59,0,0,1-1.37.78,1.62,1.62,0,0,1-1.24-.62Zm-2.58,0a.3.3,0,0,0,.19,0h0l-.07,0h.09a.06.06,0,0,1,0,0,.05.05,0,0,0,.05.06l0,0h0v0s0,0,0,0h0v0h.05a.42.42,0,0,0,.19.16v0l-.15-.15h0l.12.12h0a1.11,1.11,0,0,0-.08-.12h.06a.29.29,0,0,1,0,.08l0,0,.09.06h0l-.08-.07h0l.09.06v0h0s0,0,0-.05a.21.21,0,0,0-.17-.07h1a.44.44,0,0,0-.08.12h0l.13-.13h0l-.16.16h0a.32.32,0,0,0,.19-.15s0,0,0,0h.05a.1.1,0,0,0,0,0l0,0v0h0s0,0,0,0a0,0,0,0,0,.05-.05h0s0-.05,0-.06H17l-.12,0h0a.3.3,0,0,0,.21,0h.32a1.6,1.6,0,0,1-1.37.78,1.63,1.63,0,0,1-1.36-.78Z"/><path class="cls-1" d="M20.46,23a2.29,2.29,0,0,0,0-.25A1.76,1.76,0,0,0,18.7,21a1.84,1.84,0,0,0-1.36.58A1.86,1.86,0,0,0,16,21a1.77,1.77,0,0,0-1.81,1.72c0,.09,0,.18,0,.28H12.6V23h2.56V23H15l0-.05h0l0,0h-.1l0,0,0-.06a.25.25,0,0,0,0-.14v-.08h0l0,0a.28.28,0,0,0-.1.14.29.29,0,0,0,0,.09s0,.05,0,.08l.12-.23h0l-.08.23h-.08l-.13-.2.14.17h0a.25.25,0,0,0,0-.07.52.52,0,0,0-.19-.23h0a.39.39,0,0,0,.08.24.17.17,0,0,0,.06.06l0,0h-.34a1.32,1.32,0,0,1,0-.28,1.61,1.61,0,1,1,3.22,0,2.28,2.28,0,0,1,0,.26h-.32l.06-.05a.51.51,0,0,0,.08-.25h0a.41.41,0,0,0-.19.23.36.36,0,0,0,0,.07h0l.14-.17-.11.18h0s0,0,0-.07a.38.38,0,0,0,0-.1.26.26,0,0,0-.09-.14h0a.35.35,0,0,0,0,.23l0,.06,0,0H17v0s0,0,0,0a0,0,0,0,1,0,0h-.15V23H18V23h-.26a2.29,2.29,0,0,0,0-.25,1.71,1.71,0,0,0-.37-1.06A1.6,1.6,0,0,1,18.69,21a1.64,1.64,0,0,1,1.6,1.67,2.28,2.28,0,0,1,0,.26h-.88V23h2.75V23Zm-3.34,0L17,22.73h0l.1.22Z"/><path class="cls-1" d="M17.13,22.54l-.06-.08a.23.23,0,0,0-.17-.1s0,0,0,0h0a.31.31,0,0,0,.12.19l.06,0,.08,0s0,0,0,0h0a.11.11,0,0,0,0,.06h.05s0,0,.05,0h0s0-.05,0-.05a.15.15,0,0,0,0,0l0,0a.29.29,0,0,0,0-.09s0,0,0-.06a.48.48,0,0,0-.05-.2h0a.44.44,0,0,0-.07.22h0v.09s0,.06,0,.08h0l0-.26h0l0,.27h0l-.19-.2.18.16Z"/><path class="cls-1" d="M16.28,23.71l.08-.06,0,0-.08.06v0l.09-.06,0,0a.3.3,0,0,1,0-.08.32.32,0,0,0-.17.07l0,.05Z"/><path class="cls-1" d="M16.06,23.78h0l.06-.08h0l-.05.08h0c.1,0,.09-.05.1-.07a.18.18,0,0,0-.13-.06l0,0C16,23.77,16.06,23.78,16.06,23.78Z"/><path class="cls-1" d="M15.9,23.9V24H16a.15.15,0,0,0,0-.06h0v-.07a0,0,0,0,0,0,0h0A.11.11,0,0,0,15.9,23.9Z"/><path class="cls-1" d="M15.83,23.8h0l0-.08h0l.06.08h0l0-.06,0-.05a.31.31,0,0,0-.13.06S15.74,23.77,15.83,23.8Z"/><path class="cls-1" d="M16,24h0v-.09a.14.14,0,0,0,0-.06h0s0,0,0,0v.07h0A.15.15,0,0,0,16,24Z"/><path class="cls-1" d="M15.52,23.83l0,0v0l0,0h0v0l0,0a0,0,0,0,0-.05,0l0,.05v0A0,0,0,0,0,15.52,23.83Z"/><path class="cls-1" d="M15.47,23.8h-.22v0h.23a.58.58,0,0,0-.2,0,.34.34,0,0,0-.16.06.38.38,0,0,0,.14.05A.33.33,0,0,0,15.47,23.8Z"/><path class="cls-1" d="M16.06,24.15l0,0,0,0,0,0,0-.05v0h0a.19.19,0,0,0,0,.07Z"/><path class="cls-1" d="M16,24h0s0,0,0,.06h0l0,0,0,0,0-.06A.11.11,0,0,0,16,24Z"/><path class="cls-1" d="M15.67,24a.35.35,0,0,0,.2,0h0v0h-.23v0l.24,0v0a.63.63,0,0,0-.17,0,.24.24,0,0,0-.18.1Z"/><path class="cls-1" d="M16.28,23.83a.49.49,0,0,0-.17,0h0l.24,0v0H16.1v0h0a.41.41,0,0,0,.21,0,.34.34,0,0,0,.15-.06A.32.32,0,0,0,16.28,23.83Z"/><path class="cls-1" d="M16.62,22.1s0,0,0,0a.48.48,0,0,0,.21.17H17s0,0,0,0a0,0,0,0,0,.05,0s0,0,0,0a0,0,0,1,0,0-.08s0,0-.06,0l-.25-.11h0l.22.09h0l0,0-.1-.05A.27.27,0,0,0,16.62,22.1Z"/><path class="cls-1" d="M16.41,23.72s0,0,0,0h0v0l0,0s0,0,0-.05h0s0,0,0-.05A0,0,0,0,0,16.41,23.72Z"/><path class="cls-1" d="M16.51,23.79s0,0,0,0a.28.28,0,0,0,.22,0,.38.38,0,0,0,.14,0,.5.5,0,0,0-.16-.05.51.51,0,0,0-.2,0v0l.23,0v0Z"/><path class="cls-1" d="M15.26,22.05h0a.48.48,0,0,0,.15-.2h0a.59.59,0,0,0-.21.1l-.05,0,0,0v0l.22-.14-.18.17Z"/><path class="cls-1" d="M16.83,22s0,0,0-.05a.47.47,0,0,0-.21-.11h0a.45.45,0,0,0,.14.19h0l.09,0-.18-.16.22.14v0Z"/><path class="cls-1" d="M15,22.22a.21.21,0,0,0,0-.07l0,0a1.68,1.68,0,0,0,.06-.24v0s0,0,0,0a.35.35,0,0,0-.14.22.22.22,0,0,0,0,.08s0,0,0,0v0L15,22h0l-.06.26Z"/><path class="cls-1" d="M17.06,22.22v0h0v0s0-.06,0-.09a.42.42,0,0,0-.14-.22h0a.52.52,0,0,0,.05.27.1.1,0,0,1,0,0l0,.08h0L17,22h0Z"/><path class="cls-1" d="M15.39,22.1h0a0,0,0,0,0,0,0,.29.29,0,0,0-.22,0l-.09.05-.05,0h0l.22-.08h0l-.25.11s0,0-.06,0a0,0,0,0,0,0,0,0,0,0,0,0,0,0,.09.09,0,0,0,.05,0,0,0,0,0,0,0,0s0,0,0,0h.1l.06,0A.42.42,0,0,0,15.39,22.1Z"/><path class="cls-1" d="M15,22.55a.34.34,0,0,0,.13-.19h0a.19.19,0,0,0-.18.09l-.06.08,0,.05.18-.16-.19.2h0l0-.27h0l0,.26h0s0,0,0-.08v-.09h0a.44.44,0,0,0-.07-.22h0a.45.45,0,0,0,0,.26.29.29,0,0,0,0,.09l0,0a.08.08,0,0,0,0,0s0,0,0,.06,0,0,0,0,0,0,.05,0a.07.07,0,0,0,0-.05h0l0,0s0,0,.08,0S15,22.57,15,22.55Z"/><path class="cls-2" d="M12.81,23.08h.1l0,0s0,0,0,0v0a0,0,0,0,1,0,0h0a0,0,0,0,1,0,0h0v0a0,0,0,0,1,0,0,.08.08,0,0,1,0,.08s-.05,0-.1,0h-.21v-.34Zm0,.13s0,0,0,0,0,0,0,0h-.19v.08h.19Zm0,.16h0l0,0v0a.05.05,0,0,0,0,0h-.2v.1h.18Z"/><path class="cls-2" d="M13.1,23.16v.24h0v-.24Z"/><path class="cls-2" d="M13.4,23.16v0h-.17v.06h.15v0h-.15v.06h.18v0h-.22v-.24Zm-.12-.06,0,0h0l-.06,0Z"/><path class="cls-2" d="M13.62,23.16h.07l0,0v.06l0,0a0,0,0,0,1,0,0h0l.07.1h-.06l-.07-.09h-.07v.09h0v-.24Zm0,.11h0a0,0,0,0,0,0,0,0,0,0,0,0,0,0h-.14v.07h.11Z"/><path class="cls-2" d="M14,23.16v0h-.17v.06H14v0h-.14v.06H14v0h-.22v-.24Z"/><path class="cls-2" d="M14.55,23.16h0l0,0h-.14s0,0,0,0h.16l.09,0a.09.09,0,0,1,0,.07.07.07,0,0,1,0,.05l0,0-.05,0h-.16l0,0,0,0s0,0,0,0l.07,0s0,0,0,0a0,0,0,0,0,0,0l0,0h.12l0,0v0s0,0-.07,0h-.08a.12.12,0,0,1-.09,0s0,0,0-.06a.43.43,0,0,1,0-.05l0,0h.21l.06,0s0,0,0,0v0l-.06,0A.1.1,0,0,1,14.55,23.16Z"/><path class="cls-2" d="M14.85,23.16h.07l0,0h0s0,0,0,0a0,0,0,0,1,0,0h0s0,0,0,0h-.16v.09h0v-.24Zm0,.11h0l0,0h0v0h-.15v.07h.12Z"/><path class="cls-2" d="M15.23,23.16v0h-.17v.06h.15v0h-.15v.06h.18v0H15v-.24Zm-.06-.06-.05,0h0l0,0Z"/><path class="cls-2" d="M15.55,23.33s0,0,0,0v0l0,0h-.13l0,0,0,0s0,0,0-.06a.43.43,0,0,1,0-.05l0,0,0,0h.11l0,0h0v0H15.5s0,0,0,0l0,0h-.08l0,0s0,0,0,0a0,0,0,0,0,0,0s0,0,0,0l0,0h.14a0,0,0,0,1,0,0h0Z"/><path class="cls-2" d="M15.67,23.16v.24h0v-.24Z"/><path class="cls-2" d="M15.9,23.16l.12.24h0l0,0h-.14l0,0h0l.12-.24Zm0,0-.05.11h.1Z"/><path class="cls-2" d="M16.13,23.16v.2h.17v0h-.22v-.24Z"/><path class="cls-2" d="M16.58,23.16v0h-.17v.06h.14v0h-.14v.06h.17v0h-.22v-.24Z"/><path class="cls-2" d="M17,23.16H17l.05,0,0,0a.13.13,0,0,1,0,.1l0,0,0,0h-.17v-.24Zm0,.2,0,0,0,0s0,0,0,0a.06.06,0,0,0,0,0l0,0H16.9v.16H17Z"/><path class="cls-2" d="M17.39,23.16v0h-.17v.06h.15v0h-.15v.06h.18v0h-.23v-.24Z"/><path class="cls-2" d="M17.75,23.08v.14H18v-.14H18v.34H18v-.15h-.23v.15h-.07v-.34Z"/><path class="cls-2" d="M18.3,23.16l.11.24h-.05l0,0H18.2l0,0h-.05l.11-.24Zm0,0-.05.11h.1Z"/><path class="cls-2" d="M18.71,23.35l0,0-.05,0h-.1l0,0,0,0a.43.43,0,0,1,0-.05v-.14h.05v.16l0,0h.13v-.19h0v.14A.07.07,0,0,1,18.71,23.35Z"/><path class="cls-2" d="M18.78,23.2v0H19v0h-.11v.2h0v-.2Z"/><path class="cls-2" d="M19.32,23.16v0h-.17v.06h.15v0h-.15v.06h.17v0H19.1v-.24Z"/><path class="cls-2" d="M19.58,23.14v-.06H20v.06H19.8v.28h-.07v-.28Z"/><path class="cls-2" d="M20.17,23.16h.07l0,0a0,0,0,0,1,0,.06s0,0,0,0l0,0h0l.08.1h-.06l-.07-.09h-.08v.09h0v-.24Zm0,.11h0v0h-.15v.07h.12Z"/><path class="cls-2" d="M20.49,23.16l.12.24h-.05l0,0H20.4l0,0h-.05l.12-.24Zm0,0,0,.11h.1Z"/><path class="cls-2" d="M20.78,23.16h.06l0,0,0,0a.13.13,0,0,1,0,.1l0,0,0,0h-.17v-.24Zm0,.2,0,0,0,0v-.08l0,0h-.14v.16h.1Z"/><path class="cls-2" d="M21,23.16v.24H21v-.24Z"/><path class="cls-2" d="M21.1,23.2v0h.26v0h-.1v.2h-.05v-.2Z"/><path class="cls-2" d="M21.48,23.16v.24h-.05v-.24Z"/><path class="cls-2" d="M21.55,23.24l0,0,0,0h.14l0,0,0,0v.08l0,.05,0,0h-.14l0,0,0-.05v-.08Zm.18.12h0s0,0,0,0,0,0,0,0a.06.06,0,0,0,0,0l0,0,0,0h-.08l0,0s0,0,0,0,0,0,0,0,0,0,0,0l0,0h.1Z"/><path class="cls-2" d="M22,23.16l.16.18v-.18h.05v.24h-.05L22,23.22v.18H21.9v-.24Z"/><path class="cls-2" d="M20.67,2.15h0v0h0v.05l0,0,0,0,0,0h.31l0,0h0l0,0v0l0,0h0l0,0h0l0,0,0,0,0,0,0,0,0,0,0,0h0l0,0H21l0,0,0,0V1.63l0,0,0,0,0,0,0,0,0,0,0,0,0,0,0,0,0,0,0,0,0,0h0l0,0h.28v0l0,0h.18l-.06.12-.06.12-.07.12-.06.13-.06.12L21.44,2l-.07.12,0,0v0l0,0,0,0,0,0,0,0,0,0,0,0h0l0,0h-.36l0,0h0v0h0V2.17h0Zm.94-.74h0l0,0v.08h0v0h0l0,0v.1l0,0v.05l0,0v0l0,0v0l0,0,0,0,0,0h0l0,0h-.17V1.82h0v0h0V1.7l0,0v0l0,0,0,0v0l0,0,0,0,0,0,0,0h0l0,0h.06l0,0h.15l0,0v0h0Zm-.73-.23h0l0,0,0,0,0,0h.13l0,0,0,0,0,0,0,0,0,0,0,0,0,0,0,0,0,0,0,0,0,0,0,0,0,0-.1.22h-.17l0-.06,0-.08,0-.07,0-.08,0-.08,0-.07,0-.08,0-.08h0v0h0v0h0v0h0l0,0v0ZM19.51.93h0v0h0V.82h0l0,0h-.18l0,0h0l0,.05,0,0,0,.05,0,.05,0,.05v.29h0v0h.12l0,0h0l0,0,0,0,0,0,0,0v0l0,0,0,0V1.08h0V.93Zm.13,0V.83l0,0h0l0,0h-.25l0,0h0l0,0,0,0,0,0,0,0,0,0,0,0,0,0V1l0,0v.28l0,0v0l0,0,0,0h.29l0,0,0,0,0,0,0,0,0,0,0,0,0,0,0,0v0l0,0V1h0Zm-1-.69h0l0,.11,0,.11,0,.11,0,.1h0l0,0h0l0,0h.21l0,0h0l0,0h0v.31l0,0v0l0,0,0,0,0,0,0,0v0l0,0h0l0,0h0l0,0h-.28l0,0h0v0l0,0V1.15l0-.09,0-.09,0-.08.18-.54H18.4l0,0h.19Zm.12.63v0h0V.81h0v0h-.18l0,0h0l0,0v0h0l-.09.28v0h0v.08h0v.06h0v0h.17l0,0h0v0h.05v0l0,0,0,0,0,0v0l0,0V.91ZM18.1.77h0l0,.09,0,.09,0,.09,0,.09,0,.08,0,.09h.12l0,0,0,0,0,0,0,0v0h0v0h-.33v0h0v0h0l0-.09,0-.1,0-.1,0-.09,0-.1h-.16l0,0h0l0,0,0,0,0,0V.91l0,.11,0,.12,0,.11,0,.11h0l0,0h-.09l0-.11.15-.5h-.1l0,0h0l0,0h0l0,0,0,0,0,0v0l0,0,0,0V1h0l0,0,0,0,0,0,0,0,0,0,0,0,0,0,0,0,0,0h.2v0h0v0h0l0,0,0,0h0l0,0h.29Zm-1,0H17l0,0h0l0,0,0,0,0,0,0,0v0l0,0,0,0v0l0,0v.15h.13l0,0h0l0,0h0l0,0,0,0,0,0,0,0,0,0V.79Zm.12,0V.87l0,0V1l0,0,0,0,0,0,0,0,0,0,0,0h0l0,0h-.21v.14h0l0,0H17l0,0h0l0,0,0,0,0,0h0l0,0,0,0,0,0h0l0,0,0,0,0,0,0,0,0,0,0,0,0,0,0,0h0l0,0h-.23l0,0h0l0,0,0,0V1l0,0v0l0,0v0l0,0,0,0,0,0,0,0,0,0,0,0,0,0h.05l0,0h.24V.82Zm-.82.1-.09.46h.12l0,0h0l0,0v0l0,0,0,0h0v0h0v0h0v0l0,0v0l0,0,0,0,0,0,0,0h-.21v0h0v0h0v0l0-.12,0-.12,0-.12,0-.12h-.18v0h0l0,0V1l0,0h0l-.11.52h-.09l0,0h0l0-.12,0-.13,0-.13,0-.12,0-.13h0v0h-.17l0,0h0l0,0h0l0,0h0V1l0,0h0l0,0,0,0h0l0,0h0l0,0h.23v0h0v0h0l0,0h0l0,0h0l0,0h.29v.1Zm-1,.29V1l0,0V1l0,0h-.15V1h0l0,0v.53l0,0v0l0,0,0,0h.14v0h0v0h0v0h0V1.21Zm.14,0V1l0,0V1l0,0h0l0,0h-.24l0,0,0,0,0,0,0,0,0,0,0,0,0,0,0,0v0l0,0v.32l0,0v.05l0,0,0,0,0,0,0,0h.26l0,0h0l0,0,0,0,0,0,0,0v0l0,0V1.21ZM14.88,1h0l0,0h0l0,0,0,0,0,0,0,0v0l0,0,0,0V1.8l0,0,0,0,0,0,0,0,0,0h0V1.22h0v0h0v0h-.11l0,0h.22v0h0V1.13l0,0,0,0,0,0h0l0,0,0,0h.11Zm-1-.16v.52h0l0-.06,0-.06L14,1.21l0-.07,0,0,0-.06,0-.06,0-.06,0-.05,0-.06.05-.05L14.38.7h.06l-.08.09-.08.1-.07.1-.08.1-.08.1-.07.1h0l0,.08.05.09,0,.08,0,.08.05.08.06.08.05.08,0,.08.06.07.06.08,0,.07.07.08.06.06.06.06h-.11v0h-.08l-.06,0-.06,0-.05-.06,0-.05L14.26,2l0-.06-.05-.06h0v0h0l0,0v0l0,0h0l0-.07,0-.07,0-.07,0-.06,0-.07h0l0,.05h0v.82h-.08l0,0,0,0h0V1h0l-.07,0h0l.06,0,.06,0,.06,0,.06,0Z"/><path class="cls-2" d="M19.7,1.49h0v0h0l.09-.21L19.89,1h0V1h-.12l0,0h0l0,0,0,0,0,0,0,0,0,0v0h0v0h0V1h0l0,0V1h.05l0,0H20V1h0l0,.1,0,.09,0,.1h0l0,0h0v.08h0v0h.28v0l.05-.11.05-.12.05-.12,0-.11h.16l0,.07,0,.08,0,.07,0,.08,0,.07,0,.08,0,.07,0,.08h0v0h0v.06h.28l0,0,0,0,0,0h0l0,0h-.26V1.52h-.06l0,0h-.3v0h0v0Z"/><path class="cls-2" d="M18.24,2.68l-.1,0v0l0-.12a1.77,1.77,0,0,1,.06-.17h0l-.06,0h-.33s0,0,0,.09V2.5l.06,0,.07,0v0l-.12,0h-.11v0l0-.13c0-.07,0-.09,0-.14h-.49a.28.28,0,0,1,.05.08.75.75,0,0,1,.06.13h.09l.11,0v0h-.28l0-.15,0-.13h-.2l-.1,0h-.09l-.07,0h0l.15.15,0,0h.22v0h0l-.3.05-.13,0a.61.61,0,0,0-.14.07h0v0a.3.3,0,0,1,.1.07l.09.1h.23v0l0-.08,0-.1v0l.1.08a1.06,1.06,0,0,1,.1.12h.16v0h-.18l-.15,0a.7.7,0,0,0-.19.06l0,0,.07.08,0,0,.21,0h.76l.24,0h0l0-.1L18,3h0v0l0-.1,0-.12,0,0a.76.76,0,0,1,0,.14v.12h0l0,0,0,0h0V3h0v0l0,0h0V2.86l0,0,.06-.11Zm-.6.23H17.4v0l0-.12V2.58a.49.49,0,0,1,.07.11.85.85,0,0,1,.06.13h0l.06,0,.08,0Zm.28,0h-.21V2.75a.65.65,0,0,1,0-.16c0,.06,0,.08,0,.15l0,.13h.06l.06,0Z"/><path class="cls-2" d="M16.59,2.49a.57.57,0,0,1,.11.11l.11,0h.13l-.06-.13-.05-.09v0h0l-.08,0-.09,0-.08,0-.07,0Z"/><path class="cls-2" d="M18.51,2.39h-.05l-.06,0h-.06l-.06,0h0v.28l.06,0,.05,0,.1-.17h0l.06-.1v0Z"/><path class="cls-1" d="M19.68,4.42s0,0,0,0h-.09l-.12-.05h0l-.08,0-.09,0a.12.12,0,0,0-.09,0,.11.11,0,0,0,0,.08.51.51,0,0,0,0,.09.15.15,0,0,1,0,.08.12.12,0,0,1,0,.09.14.14,0,0,1-.09,0h0s0,0,0,0H19s0,0,0,0V4.53l0,0a.11.11,0,0,0-.08,0,.1.1,0,0,0-.07,0,.15.15,0,0,0-.06,0h0a.06.06,0,0,1,.05,0s0,0,0,0h-.07s0,0,0,.06a.11.11,0,0,0,0,0v.13c0,.14,0,.2,0,.26h.08l0,0a.4.4,0,0,1,.17-.1.47.47,0,0,1,.17,0h.08l.07,0,.05,0h0a.23.23,0,0,1,0-.07.3.3,0,0,1,0-.1.36.36,0,0,1,.07-.1.27.27,0,0,1,.15,0l.1,0h.06l0,0h0s0,0,0-.05a.14.14,0,0,0,0-.06A.3.3,0,0,0,19.68,4.42Z"/><path class="cls-1" d="M19.1,4a.35.35,0,0,1,0-.11s0,0,0,0a.17.17,0,0,1-.11,0c-.08,0-.13,0-.13-.1s0,0,0-.06a.34.34,0,0,0,0-.09v0a.06.06,0,0,0-.06,0h-.06l0,0a.13.13,0,0,0,0,.07l0,0h.1l-.06,0,0,0a.42.42,0,0,0,0,.18v.17a.27.27,0,0,1,.11,0,.23.23,0,0,1,.12,0H19a.33.33,0,0,1,.12.06l.05,0,0,0A.35.35,0,0,1,19.1,4Z"/><path class="cls-1" d="M15.27,4.6s0,0,0,.05h0l0,0h.07a.17.17,0,0,1,.1,0,.27.27,0,0,1,.15,0,.25.25,0,0,1,.09.2h0a.15.15,0,0,1,0,.06h0l.05,0,.15,0a.47.47,0,0,1,.28.09.31.31,0,0,1,.1.08h0V5s0,0,0,0h0V4.66a.43.43,0,0,1,0,0s0,0,0,0a.08.08,0,0,0-.06,0h-.05s0,0,0,0,0,0,.05,0h0s0,0-.05,0a.1.1,0,0,0-.07,0,.11.11,0,0,0-.08,0l0,0v.06l0,.07a.11.11,0,0,1-.08,0,.15.15,0,0,1-.1,0,.12.12,0,0,1,0-.09.31.31,0,0,1,0-.08.81.81,0,0,0,0-.09.11.11,0,0,0,0-.08.12.12,0,0,0-.09,0l-.09,0h-.1l-.13.05h0l0,0h0s0,0,0,0l-.1,0A.2.2,0,0,0,15.27,4.6Z"/><path class="cls-1" d="M16,4.08l.06,0h0a.34.34,0,0,1,.19-.05.3.3,0,0,1,.13,0l.09,0V4a.65.65,0,0,0,0-.17l0,0-.06,0h.06l.06,0s0,0,0-.07a.12.12,0,0,0-.08,0h0a.08.08,0,0,0,0,.06.34.34,0,0,0,0,.09v.06s0,.05,0,.07a.12.12,0,0,1-.09,0,.17.17,0,0,1-.11,0,.12.12,0,0,1-.05,0A.14.14,0,0,1,16,4a.16.16,0,0,1-.07.09Z"/><polygon class="cls-1" points="20.82 4.33 20.82 4.34 20.82 4.34 20.82 4.33"/><path class="cls-1" d="M18.83,3.64h0Z"/><path class="cls-1" d="M14.32,4.35v0Z"/><path class="cls-1" d="M18.56,3.12a0,0,0,0,0,0,0s0,0,0,0l.05,0h.05s0,0,0,0,0,0,0,0h.09a.22.22,0,0,1,.15.09.53.53,0,0,1,.06.1.5.5,0,0,1,0,.13h.05l.05,0a.11.11,0,0,1,0-.06l.07-.07,0,0h-.12A.21.21,0,0,1,19,3.28a.83.83,0,0,0-.15-.18L18.78,3h-.09a.18.18,0,0,0-.11,0A.14.14,0,0,0,18.56,3.12Z"/><path class="cls-1" d="M20.61,3.44v0l0,0v0h0a.3.3,0,0,1,0-.08Z"/><path class="cls-1" d="M16.53,4.51c0,.19,0,.36,0,.43s0,.13,0,.19a.42.42,0,0,0,.11.26l.11.08a1.13,1.13,0,0,0,.35.08c.2,0,.26,0,.33.08a.16.16,0,0,1,.08.06.24.24,0,0,1,.06.08.16.16,0,0,1,.06-.08.19.19,0,0,1,.07-.06A.68.68,0,0,1,18,5.55l.17,0a.47.47,0,0,0,.29-.14.35.35,0,0,0,.08-.1,1,1,0,0,0,0-.35V3.6a2.09,2.09,0,0,1,0-.26H16.53v0c0,.12,0,.26,0,.52v.61Zm1-1.11v1h.95V5a.48.48,0,0,1-.09.33.26.26,0,0,1-.11.07,1.07,1.07,0,0,1-.31.08l-.16,0a.7.7,0,0,0-.14,0l-.1.06,0,0V4.41h-.95V4.14c0-.11,0-.24,0-.33s0-.17,0-.35v0Z"/><path class="cls-1" d="M18.56,3.17h0s0,0,0,0h0Z"/><path class="cls-1" d="M15.84,2.79h0A0,0,0,0,0,15.84,2.79Z"/><path class="cls-1" d="M16.6,3.07v0h0Z"/><polygon class="cls-1" points="14.94 2.81 14.94 2.81 14.94 2.82 14.94 2.81"/><path class="cls-1" d="M14.59,3h0l0,0h0Z"/><path class="cls-1" d="M14.36,3h0Z"/><path class="cls-1" d="M15.49,2.58h-.06Z"/><path class="cls-1" d="M19.31,2.78h0Z"/><path class="cls-1" d="M19.7,2.56h0Z"/><path class="cls-1" d="M18.65,3h-.08Z"/><path class="cls-1" d="M16.45,3h-.09l-.09.06a.83.83,0,0,0-.15.18c-.05.07-.07.09-.12.11h-.13l.05,0a.22.22,0,0,1,.06.07s0,0,0,.06l.05,0h0v0a.4.4,0,0,1,.09-.2.27.27,0,0,1,.08-.07.19.19,0,0,1,.1,0h.06s0,0,0,0v0l0,0h.05l.05,0h0a.05.05,0,0,0,0,0,.09.09,0,0,0,0-.06A.13.13,0,0,0,16.45,3Z"/><path class="cls-1" d="M20.81,3h0Z"/><polygon class="cls-1" points="18.88 3.06 18.88 3.06 18.87 3.05 18.88 3.06"/><polygon class="cls-1" points="18.98 6.07 18.97 6.05 18.97 6.05 18.96 6.04 18.96 6.04 18.95 6.04 18.94 6.05 18.93 6.05 18.93 6.06 18.93 6.07 18.93 6.09 18.93 6.11 18.93 6.12 18.94 6.13 18.94 6.13 18.95 6.14 18.96 6.14 18.96 6.14 18.96 6.14 18.98 6.14 18.98 6.13 18.98 6.13 18.99 6.12 18.99 6.11 18.99 6.1 18.98 6.08 18.98 6.07"/><polygon class="cls-1" points="16.55 6.02 16.55 6.02 16.54 6.01 16.53 6.01 16.52 6 16.5 6 16.5 6 16.48 6.08 16.49 6.08 16.5 6.08 16.51 6.08 16.53 6.08 16.54 6.07 16.54 6.07 16.55 6.06 16.55 6.05 16.55 6.05 16.55 6.04 16.55 6.04 16.55 6.03 16.55 6.02"/><polygon class="cls-1" points="15.56 5.87 15.55 5.85 15.54 5.84 15.53 5.83 15.51 5.82 15.49 5.82 15.47 5.81 15.45 5.82 15.44 6 15.44 6 15.46 6 15.47 6 15.47 6 15.49 6 15.51 6 15.53 5.99 15.54 5.98 15.55 5.97 15.56 5.95 15.56 5.93 15.56 5.91 15.56 5.89 15.56 5.87"/><polygon class="cls-1" points="19.42 5.98 19.42 5.97 19.41 5.96 19.41 5.96 19.4 5.95 19.39 5.95 19.39 5.96 19.38 5.96 19.37 5.97 19.37 5.98 19.36 5.99 19.36 6.01 19.37 6.02 19.37 6.04 19.38 6.04 19.38 6.05 19.39 6.05 19.4 6.05 19.41 6.05 19.42 6.04 19.42 6.04 19.43 6.03 19.43 6.02 19.43 6.01 19.43 5.99 19.42 5.98"/><polygon class="cls-1" points="19.85 5.93 19.86 5.86 19.8 5.93 19.85 5.93"/><path class="cls-1" d="M21.59,6.44l-.08,0h-.12a.32.32,0,0,1-.14,0,.09.09,0,0,1-.06,0,.07.07,0,0,1,0-.06.35.35,0,0,1,0-.12s0,0,0-.08l.06-.11,0,0L21,6.24l-.14,0a.63.63,0,0,1-.19,0,.44.44,0,0,1-.15,0l-.06,0H20.4s0,0,0,.09-.05,0-.06-.07a.23.23,0,0,1,0-.11A.41.41,0,0,1,20.38,6a.87.87,0,0,1,.09-.12s0,0,0,0,0,0-.08-.07a1.06,1.06,0,0,0-.25-.09,1.79,1.79,0,0,0-.34,0h-.21a3.7,3.7,0,0,0-.54.11l-.32.09c-.2.05-.41.1-.61.13a3.81,3.81,0,0,1-.59,0A3.73,3.73,0,0,1,17,6a4.42,4.42,0,0,1-.61-.13l-.32-.09a1.83,1.83,0,0,0-.25-.06,2.5,2.5,0,0,0-.51-.06h-.18l-.28,0-.17.09s0,0,0,0a.09.09,0,0,0,0,0l.1.12a.38.38,0,0,1,0,.17.22.22,0,0,1,0,.11.23.23,0,0,1-.07.07v0h0v0h-.06l-.07,0a.36.36,0,0,1-.14,0h-.07a.87.87,0,0,1-.26-.08L14,6.18a.64.64,0,0,1-.15-.13l.06.11,0,.08a.3.3,0,0,1,0,.11.08.08,0,0,1,0,.07.07.07,0,0,1-.06,0,.34.34,0,0,1-.15,0h0l-.17,0-.06,0,.06,0,.07,0,.12,0a3.45,3.45,0,0,0,.45.14,2.91,2.91,0,0,0,.64.07,1,1,0,0,0,.37,0,.31.31,0,0,0,.1,0,.12.12,0,0,0,0-.09.08.08,0,0,0,0-.07l-.07,0-.1,0-.19,0a.13.13,0,0,1-.14-.13.22.22,0,0,1,.08-.15A.61.61,0,0,1,15,6.16a1.34,1.34,0,0,1,.33,0h.07a2.87,2.87,0,0,1,.68.1l.35.09.41.09a4.41,4.41,0,0,0,.7.06h.33a5.06,5.06,0,0,0,.77-.14L19,6.23l.32-.07a3.62,3.62,0,0,1,.43,0,1.41,1.41,0,0,1,.33,0c.13,0,.22.14.22.22a.14.14,0,0,1,0,.07.15.15,0,0,1-.13.06l-.18,0-.1,0-.07,0a.08.08,0,0,0,0,.07.14.14,0,0,0,.05.09.23.23,0,0,0,.1,0,.89.89,0,0,0,.36,0h.31a4.29,4.29,0,0,0,.6-.13l.31-.12.13-.07Zm-5.95-.52V6h0V6h0V6h-.28V6h0V5.82h-.05v0h.29v0h0v0h0v0h0v0Zm.44,0H16V6h0l0,0h0l0,.11h0V6h0l0,.08h.1V6l0,0h0l0,.12-.24,0v0h0l0-.18,0,0v0l.21,0h0l0,.1h0v0Zm.54.15v0h-.15l0,.07,0,0v0l-.16,0v0h0L16.43,6l0,0v0l.14,0h.08V6h0v0Zm.5.06h0l0,.1h0v0h-.22v0h0v0l0-.13,0,0V6l.14,0h0v0h0l0,.13h0v0H17v0h0l0-.12,0,0v0l.13,0Zm.38,0h0l0,.18,0,0v0l-.15,0v0h0l0-.19h0v0h.16Zm.45.16h-.2V6.27h0v0h0v0h0v0h.18v.06h0v0h.05v0h0v0Zm.5,0v0l0,0,0-.17H18.4v0l.12,0,0,.23h.05v0Zm.6-.2v0h0v0h0v0h-.15v0h0v0h0V6h0V6h0v0h0v0H19V6h0V6h-.07V6H19V6h0v0h0v0ZM19.49,6V6h0v0h-.16v0h0V6h0V6h0V5.88h0v0h0l0,0h.14v.07h0v0h-.08v0h.13V6h0V6Zm.46,0H19.8V6h0V6h-.12v0l.15-.16h.05v.15h0V6h0V6h0Z"/><path class="cls-1" d="M21,3.52h0l0,0a.14.14,0,0,1,0-.11s0,0,0-.1V3.22a.18.18,0,0,0,0-.11A.19.19,0,0,0,20.68,3l-.13,0-.06.05a.23.23,0,0,0,0,.1h0v.33l0,.12.07.16,0,.11h0V4h0V4h0v0h0v0h0v.05h0v.09a.24.24,0,0,1,0,.12.23.23,0,0,1-.24.15.28.28,0,0,1-.24-.11.21.21,0,0,1-.06-.1.32.32,0,0,1,0-.15.27.27,0,0,1-.12,0,.46.46,0,0,1-.07-.07.34.34,0,0,1-.06-.2.83.83,0,0,1,.07-.33,1,1,0,0,0,0-.14,1,1,0,0,0,0-.23.41.41,0,0,0,0-.11.31.31,0,0,0,0-.08.19.19,0,0,1,0,.09.46.46,0,0,1,0,.19v0a2.63,2.63,0,0,1,0,.34.92.92,0,0,0,0,.2A.34.34,0,0,0,20,4a.17.17,0,0,0,.13.07l.07,0A.17.17,0,0,0,20.24,4h.07a.27.27,0,0,1-.1-.15.53.53,0,0,1,0-.23V3.2A.82.82,0,0,0,20.1,3l-.05-.06A.22.22,0,0,0,20,2.83h0l.11.08a1.31,1.31,0,0,1,.09.17h0v0h0V3h0V3h0s0,0,0,0a.5.5,0,0,0-.13-.21L20,2.65a.5.5,0,0,0-.21,0,.18.18,0,0,0-.11,0,.08.08,0,0,0,0,.05.08.08,0,0,0,0,0h-.1s0,0,0,0,0,0,0,0h.09v0h0l-.06,0a0,0,0,0,1,0,0h0s0,0,0,0h-.16s0,0,0,0h0l0,0a0,0,0,0,0,0,0v0l0,0h.08a.16.16,0,0,1,.17.15.11.11,0,0,1,0,.08.17.17,0,0,1-.13,0h-.09a.17.17,0,0,1,0,.08h0a.09.09,0,0,1,0,.05v0l.09-.05.1,0a.55.55,0,0,0,.16-.1.18.18,0,0,0,0-.07.75.75,0,0,0,0-.11v.06a.28.28,0,0,1,0,.09.21.21,0,0,1,0,.07.64.64,0,0,1-.18.14.75.75,0,0,0-.24.22.42.42,0,0,0-.06.21v0a.37.37,0,0,0,.09.2l.06.06.1,0H19.4l-.09,0,.08.08.1.06.24.09.11,0a.19.19,0,0,1,.1.16.32.32,0,0,1-.07.18c-.05.06-.06.08-.06.12a.14.14,0,0,0,0,.06A.13.13,0,0,0,19.9,5L20,5l.07,0s.06.06.06.09l0,0,0,0,0,.06v.07s0,0,0,0h0l0,0a.09.09,0,0,0-.07,0,.12.12,0,0,0-.09,0l0,0a.13.13,0,0,0,0,.06h0l.05,0s0-.05.06-.05h0a.07.07,0,0,0,0,.06,0,0,0,0,0,0,0,.63.63,0,0,1,.19,0,.92.92,0,0,1,.25.09h0s0,0,0,0h0V5.6h0a0,0,0,0,1,0,0l0,0s0,0,0-.08V5.44a.54.54,0,0,1,.08-.21l.06-.09.07-.08h0a.22.22,0,0,1-.13,0A.18.18,0,0,1,20.3,5a.21.21,0,0,1,0-.11s0,0,0,0,.06-.1.13-.14l.11-.06a.35.35,0,0,0,.18-.15.54.54,0,0,0,0-.35.94.94,0,0,0-.13-.3,1.73,1.73,0,0,1-.12-.26.35.35,0,0,1,0-.17.16.16,0,0,1,0-.1h0v0h0l0,0h0v0h0l0,0h.21l0,0h0a.2.2,0,0,0,0,.11.3.3,0,0,0,0,.1.23.23,0,0,0,.2.14h.06A.1.1,0,0,0,21,3.51Zm-1.22-.68h.11l0,0s0,0,0,0h-.1l.05,0,.06,0h0s0,0,0,0a.21.21,0,0,1,0,.06.09.09,0,0,1-.09.09h0A.08.08,0,0,1,19.75,2.84Zm.06,1.33h-.13a.3.3,0,0,1-.15-.07L19.47,4a.35.35,0,0,1,0-.36.92.92,0,0,1,.11-.14l.06-.07,0-.05,0,0a.6.6,0,0,1-.06.11.61.61,0,0,0-.07.14.51.51,0,0,0,0,.17v0a.35.35,0,0,0,.1.21l.09.07.08,0h0Z"/><path class="cls-1" d="M15.85,4,15.9,4a.35.35,0,0,0,0-.17.42.42,0,0,0-.06-.21.7.7,0,0,0-.25-.22.55.55,0,0,1-.17-.14s0,0,0-.07a.29.29,0,0,1,0-.09h0a.43.43,0,0,0,0,0V3a.23.23,0,0,0,.07.14l.06,0,.2.09.09.05h0a0,0,0,0,0,0,0,.13.13,0,0,1,0-.06.11.11,0,0,1,0-.08h-.17s-.05,0-.06,0a.11.11,0,0,1,0-.08.16.16,0,0,1,.17-.15h0l.06,0h0a0,0,0,0,0,0,0h0a.09.09,0,0,0,0-.05h0s0,0,0,0h-.07l-.09,0a0,0,0,0,1,0,0l0,0s0,0,0,0l-.07,0h0v0h.1a0,0,0,0,0,0,0s0,0-.06,0h-.05a.08.08,0,0,0,0,0,.05.05,0,0,0,0-.05.14.14,0,0,0-.11,0h0a.43.43,0,0,0-.29.13.5.5,0,0,0-.13.21.43.43,0,0,0,0,.05h0V3h0V3h0v0h0S15,3,15,3a.35.35,0,0,1,.13-.14s0,0,.07,0l0,0,0,0,0,.06a.37.37,0,0,0-.05.11,1.09,1.09,0,0,0,0,.26v.26s0,.07,0,.11a.49.49,0,0,1-.08.21s0,0-.06.06h.06s0,0,0,0h0l0,0,.08,0A.17.17,0,0,0,15.19,4a.34.34,0,0,0,0-.19.92.92,0,0,0,0-.2,1.72,1.72,0,0,1,0-.37.43.43,0,0,1,0-.19.36.36,0,0,1,0-.09V3a.77.77,0,0,0,0,.15.53.53,0,0,0,0,.12,1,1,0,0,0,.06.26,1.22,1.22,0,0,0,.05.17.88.88,0,0,1,0,.16.32.32,0,0,1-.07.2l-.06.07a.24.24,0,0,1-.12,0,.32.32,0,0,1,0,.15.21.21,0,0,1-.06.1.28.28,0,0,1-.24.11.26.26,0,0,1-.15,0,.24.24,0,0,1-.11-.22h0s0,0,0,0h0v0h0v0h0v0h0v0h0v0h0v0h0v0h0V4h0V4h0V4l0-.11h0l.06-.16,0-.12V3.31h0v0h0a.2.2,0,0,0-.06-.11A.23.23,0,0,0,14.49,3l-.11,0s0,0-.05,0a.14.14,0,0,0,0,.11s0,0,0,.06v.1a.18.18,0,0,1,0,.11l0,0h-.09l0,0a.15.15,0,0,0,.1,0,.28.28,0,0,0,.17-.07.24.24,0,0,0,.06-.17.2.2,0,0,0,0-.11h0a0,0,0,0,1,0,0s0,0,0,0h.18v0h0v0h0v0h0a0,0,0,0,0,0,0h0s0,0,0,.07a.35.35,0,0,1,0,.17,1.73,1.73,0,0,1-.12.26,1.09,1.09,0,0,0-.08.15.62.62,0,0,0-.06.26.43.43,0,0,0,.06.24.39.39,0,0,0,.18.15l.11.06.09.06a.17.17,0,0,1,0,.12.2.2,0,0,1,0,.11.18.18,0,0,1-.08.07.22.22,0,0,1-.13,0h-.05l0,0,.1.14a1.17,1.17,0,0,1,0,.11.58.58,0,0,1,0,.19v0s0,0-.05,0h0v0h0v0l0,0A1,1,0,0,1,15,5.57l.19,0s0,0,0,0v0s0,0,0,0h0s0,0,.06.05l0,0s0,0,.06,0v0a.43.43,0,0,1,0,0l0,0a.1.1,0,0,0-.08,0,.09.09,0,0,0-.07,0l0,0h0s0,0,0,0v0a.17.17,0,0,0,0-.1l0,0,0,0a.08.08,0,0,1,0,0A.26.26,0,0,1,15.18,5l.08,0c.06,0,.1-.07.1-.12s0-.06-.06-.12a.32.32,0,0,1-.07-.18.13.13,0,0,1,0-.08c0-.06.07-.09.19-.12l.23-.09.11-.06a.29.29,0,0,0,.08-.08h-.13A.4.4,0,0,0,15.85,4Zm-.5-1.13a.08.08,0,0,1-.08-.09.13.13,0,0,1,0-.06l0,0,.06,0,.06,0h-.11s0,0,0,0,0,0,.06,0h0a.06.06,0,0,0,0,0,0,0,0,0,1,0,0A.15.15,0,0,1,15.35,2.9ZM15.71,4a.31.31,0,0,1-.1.15l-.07,0a.37.37,0,0,1-.15,0h0l-.08,0h0a.41.41,0,0,0,.16-.1.36.36,0,0,0,.07-.1.38.38,0,0,0,0-.16.55.55,0,0,0,0-.17.66.66,0,0,0-.08-.13l-.06-.11,0,0,0,.05.06.07.11.13a.38.38,0,0,1,.05.19S15.71,3.92,15.71,4Z"/><path class="cls-1" d="M22.32,5.32S28.66.23,29,.14A18.63,18.63,0,0,1,33.25,1.4s-5.6,4.81-5.88,5.28A28.68,28.68,0,0,0,22.32,5.32Z"/><path class="cls-1" d="M27.75,6.89l.33.18s5.75-5,6-5.13l-.33-.17S29.68,5.1,27.75,6.89Z"/><path class="cls-1" d="M21.1,5.09S26.52.73,27.64,0l.5.07s-2.81,2-6.52,5Z"/><path class="cls-1" d="M12.58,5.3S6.24.22,5.86.13A18.63,18.63,0,0,0,1.65,1.39S7.25,6.2,7.53,6.67A29.79,29.79,0,0,1,12.58,5.3Z"/><path class="cls-1" d="M7.15,6.88l-.33.17S1.07,2,.8,1.93l.33-.17S5.22,5.09,7.15,6.88Z"/><path class="cls-1" d="M13.8,5.07S8.38.72,7.26,0l-.5.06s2.81,2,6.52,5.05A5.14,5.14,0,0,0,13.8,5.07Z"/><path class="cls-1" d="M24.63,25s4.57,5.63,5.57,7.28a31.63,31.63,0,0,0,2.87-4.68S32,26,29.48,22.66c-1.16.66-3.57,1.81-3.57,1.81Z"/><path class="cls-1" d="M23.73,25.22s4.2,5.15,6.1,8l.22-.28-5.79-7.76Z"/><path class="cls-1" d="M29.88,22.38l.25-.16s3.41,4.37,3.52,4.67"/><path class="cls-1" d="M5.27,23.11s-3.4,4.53-3.56,4.72a25.87,25.87,0,0,0,2.87,4.56s5.29-7,5.54-7.16A50.69,50.69,0,0,0,5.27,23.11Z"/><polygon class="cls-1" points="4.56 22.58 1.41 26.87 1.56 27.2 4.96 22.72 4.56 22.58"/><path class="cls-1" d="M4.88,32.87s5.35-7.26,5.68-7.51.42.1.42.1-5.11,6.48-5.87,7.69A1.17,1.17,0,0,1,4.88,32.87Z"/></g></g></svg>