<?xml version="1.0" encoding="utf-8"?>
<!-- Generator: Adobe Illustrator 16.0.0, SVG Export Plug-In . SVG Version: 6.00 Build 0)  -->
<!DOCTYPE svg PUBLIC "-//W3C//DTD SVG 1.1//EN" "http://www.w3.org/Graphics/SVG/1.1/DTD/svg11.dtd">
<svg version="1.1" id="Calque_1" xmlns="http://www.w3.org/2000/svg" xmlns:xlink="http://www.w3.org/1999/xlink" x="0px" y="0px"
	 width="595.279px" height="841.891px" viewBox="0 0 595.279 841.891" enable-background="new 0 0 595.279 841.891"
	 xml:space="preserve">
<title>Fichier 1</title>
<g id="Calque_2_1_">
	<g id="Calque_2-2">
		<path fill="#FFFFFF" d="M571.469,147.116v547.658H23.811V147.116H571.469 M595.28,123.305H0v595.28H595.28V123.305z"/>
		<g>
			<path fill="#FFFFFF" d="M161.713,300.98v67.62c0,10.297-2.746,18.535-8.582,24.027c-6.521,5.835-14.759,8.924-23.34,8.238
				c-9.611,0.686-18.879-2.747-25.744-8.926c-6.178-6.178-9.61-14.76-9.61-26.43h23.684c0,9.268,3.432,13.729,10.64,13.729
				c6.179,0,9.268-3.433,9.268-10.64v-67.62H161.713z"/>
			<path fill="#FFFFFF" d="M231.736,300.98v57.322c-0.343,5.492,1.029,10.641,4.462,15.104c7.209,6.865,18.535,6.865,25.744,0
				c3.089-4.463,4.806-9.611,4.462-15.104V300.98h24.027v57.322c0.344,8.237-1.716,16.476-5.492,23.684
				c-3.432,6.18-8.581,11.327-14.759,14.417c-6.522,3.433-14.073,4.805-21.282,4.805c-7.208,0-14.417-1.372-20.938-4.805
				c-6.179-3.432-11.328-8.237-14.417-14.417c-3.775-7.208-5.491-15.446-5.147-23.684V300.98H231.736z"/>
			<path fill="#FFFFFF" d="M361.14,300.98v99.198h-24.027V300.98H361.14z"/>
			<path fill="#FFFFFF" d="M496.724,400.179h-24.027l-40.16-60.755v60.755h-24.027V300.98h24.027l40.16,61.441V300.98h24.027
				V400.179z"/>
			<path fill="#FFFFFF" d="M141.805,470.888c0-7.552-3.433-11.67-9.955-11.67c-3.089-0.344-6.522,1.373-8.238,3.775
				c-2.06,3.775-3.089,7.895-2.746,12.357h-23.34c0.686-12.015,4.118-21.282,10.984-27.116c6.864-6.179,16.131-9.611,25.4-9.268
				c10.64,0,18.878,2.745,24.37,8.236c5.493,5.493,8.582,13.388,8.238,21.282c-0.343,10.297-4.119,20.595-10.984,28.146
				c-7.551,9.268-16.477,17.162-26.43,23.34h39.13v19.223H97.183v-17.849C127.045,500.407,141.805,483.588,141.805,470.888z"/>
			<path fill="#FFFFFF" d="M212.858,490.109c0-15.445,3.089-27.803,9.268-36.728c6.178-8.924,16.133-13.386,30.206-13.386
				c13.729,0,23.685,4.462,29.862,13.386c6.179,8.925,9.268,21.282,9.611,36.728c0,15.447-3.089,27.804-9.611,37.071
				c-6.521,9.268-16.133,13.729-29.862,13.729s-23.684-4.462-30.206-13.729C215.947,517.569,212.858,505.557,212.858,490.109z
				 M267.777,490.109c0.343-6.864-0.686-14.073-3.089-20.595c-2.06-4.806-7.208-7.551-12.357-7.208
				c-5.149-0.687-10.298,2.402-12.7,7.208c-2.403,6.521-3.433,13.388-3.089,20.252c-0.344,6.865,0.686,14.073,3.089,20.595
				c2.402,4.806,7.208,7.895,12.7,7.208c5.149,0.687,10.297-2.402,12.357-7.208C267.091,503.84,268.12,496.975,267.777,490.109
				L267.777,490.109z"/>
			<path fill="#FFFFFF" d="M334.023,464.023v-22.312h40.162v99.198h-25.4v-76.887H334.023z"/>
			<path fill="#FFFFFF" d="M462.398,522.032c5.836,0,9.955-2.402,12.357-7.208c2.404-4.806,3.434-12.358,3.09-22.655
				c-1.717,3.776-4.807,6.522-8.924,8.925c-4.119,2.06-8.926,3.089-14.418,3.089c-9.953,0-18.191-2.746-24.027-8.237
				c-5.834-5.492-8.924-13.387-8.924-23.684c0-6.522,1.373-12.358,4.463-17.163c3.088-5.148,7.209-8.925,13.043-11.67
				c5.834-2.747,12.357-4.12,20.596-4.12c10.639,0,19.221,2.06,25.057,6.179c6.178,4.119,10.297,9.611,12.699,16.819
				c2.404,7.208,3.434,15.446,3.434,25.4c0,17.506-3.09,30.549-8.926,39.817c-5.834,8.924-15.789,13.386-29.52,13.386
				c-7.551,0-14.072-1.373-19.564-4.118c-5.492-2.746-9.611-6.521-12.701-10.984c-3.088-4.805-4.805-9.61-5.146-15.446h24.027
				C450.386,517.913,454.847,522.032,462.398,522.032z M472.009,462.993c-2.746-2.746-6.521-3.775-11.326-3.775
				c-4.463,0-8.238,1.029-10.641,3.433c-2.404,2.402-3.777,5.491-3.777,9.953s1.373,7.553,3.777,9.955
				c2.746,2.402,6.178,3.433,10.641,3.433c4.461,0,7.895-1.03,10.982-3.433c3.09-2.06,4.463-5.493,4.463-9.611
				C475.786,469.171,474.413,465.739,472.009,462.993z"/>
		</g>
	</g>
</g>
</svg>
