<?xml version="1.0" encoding="utf-8"?>
<!-- Generator: Adobe Illustrator 22.0.1, SVG Export Plug-In . SVG Version: 6.00 Build 0)  -->
<svg version="1.1" id="Calque_2" xmlns="http://www.w3.org/2000/svg" xmlns:xlink="http://www.w3.org/1999/xlink" x="0px" y="0px"
	 viewBox="0 0 2983.8 2608.7" style="enable-background:new 0 0 2983.8 2608.7;" xml:space="preserve">
<style type="text/css">
	.st0{fill:#FFFFFF;}
	.st1{fill:#F9F9F9;}
</style>
<g id="Calque_2_3_">
	<g id="Calque_1-2_2_">
		<g id="g3959_2_">
			<path id="path3889_2_" class="st0" d="M2.4,451.1c124.3,0,248.6-92.5,373-92.5l0,0c124.3,0,248.6,92.5,373,92.5l0,0
				c124.3,0,248.6-92.5,373-92.5l0,0c124.3,0,248.6,92.5,373,92.5l0,0c124.3,0,248.6-92.5,373-92.5l0,0c124.3,0,248.6,92.5,373,92.5
				l0,0c124.3,0,248.6-92.5,373-92.5l0,0c124.3,0,248.6,92.5,373,92.5l0,0v134l0,0c-124.3,0-248.6-92.5-373-92.5l0,0
				c-124.3,0-248.6,92.5-373,92.5l0,0c-124.3,0-248.7-92.5-373-92.5l0,0c-124.3,0-248.7,92.5-373,92.5l0,0
				c-124.3,0-248.7-92.5-373-92.5l0,0c-124.3,0-248.6,92.5-373,92.5l0,0c-124.3,0-248.7-92.5-373-92.5l0,0
				c-124.3,0-248.6,92.5-373,92.5l0,0V451.1L2.4,451.1"/>
			<path id="path3891_2_" class="st0" d="M2.4,689.4c124.3,0,248.6-92.5,373-92.5l0,0c124.3,0,248.6,92.5,373,92.5l0,0
				c124.3,0,248.6-92.5,373-92.5l0,0c124.3,0,248.6,92.5,373,92.5l0,0c124.3,0,248.6-92.5,373-92.5l0,0c124.3,0,248.6,92.5,373,92.5
				l0,0c124.3,0,248.6-92.5,373-92.5l0,0c124.3,0,248.6,92.5,373,92.5l0,0v134l0,0c-124.3,0-248.6-92.5-373-92.5l0,0
				c-124.3,0-248.6,92.5-373,92.5l0,0c-124.3,0-248.6-92.5-373-92.5l0,0c-124.3,0-248.7,92.5-373,92.5l0,0
				c-124.3,0-248.7-92.5-373-92.5l0,0c-124.3,0-248.6,92.5-373,92.5l0,0c-124.3,0-248.7-92.5-373-92.5l0,0
				c-124.3,0-248.6,92.5-373,92.5l0,0V689.4L2.4,689.4"/>
			<path id="path3893_2_" class="st0" d="M2.4,927.5c124.3,0,248.6-92.5,373-92.5l0,0c124.3,0,248.7,92.5,373,92.5l0,0
				c124.3,0,248.6-92.5,373-92.5l0,0c124.3,0,248.6,92.5,373,92.5l0,0c124.3,0,248.6-92.5,373-92.5l0,0c124.3,0,248.6,92.5,373,92.5
				l0,0c124.3,0,248.6-92.5,373-92.5l0,0c124.3,0,248.6,92.5,373,92.5l0,0v134l0,0c-124.3,0-248.6-92.5-373-92.5l0,0
				c-124.3,0-248.6,92.5-373,92.5l0,0c-124.3,0-248.6-92.5-373-92.5l0,0c-124.3,0-248.7,92.5-373,92.5l0,0
				c-124.3,0-248.7-92.5-373-92.5l0,0c-124.3,0-248.6,92.5-373,92.5l0,0c-124.3,0-248.7-92.5-373-92.5l0,0
				c-124.3,0-248.6,92.5-373,92.5l0,0V927.5L2.4,927.5"/>
			<path id="path3895_2_" class="st0" d="M2.4,1165.8c124.3,0,248.6-92.5,373-92.5l0,0c124.3,0,248.7,92.5,373,92.5l0,0
				c124.3,0,248.7-92.5,373-92.5l0,0c124.3,0,248.6,92.5,373,92.5l0,0c124.3,0,248.6-92.5,373-92.5l0,0c124.3,0,248.6,92.5,373,92.5
				l0,0c124.3,0,248.6-92.5,373-92.5l0,0c124.3,0,248.6,92.5,373,92.5l0,0v134l0,0c-124.3,0-248.6-92.5-373-92.5l0,0
				c-124.3,0-248.6,92.5-373,92.5l0,0c-124.3,0-248.6-92.5-373-92.5l0,0c-124.3,0-248.7,92.5-373,92.5l0,0
				c-124.3,0-248.7-92.5-373-92.5l0,0c-124.3,0-248.6,92.5-373,92.5l0,0c-124.3,0-248.7-92.5-373-92.5l0,0
				c-124.3,0-248.6,92.5-373,92.5l0,0V1165.8L2.4,1165.8"/>
			<path id="path3897_2_" class="st0" d="M2.4,1404c124.3,0,248.6-92.5,373-92.5l0,0c124.3,0,248.7,92.5,373,92.5l0,0
				c124.3,0,248.7-92.5,373-92.5l0,0c124.3,0,248.6,92.5,373,92.5l0,0c124.3,0,248.6-92.5,373-92.5l0,0c124.3,0,248.6,92.5,373,92.5
				l0,0c124.3,0,248.6-92.5,373-92.5l0,0c124.3,0,248.6,92.5,373,92.5l0,0v134l0,0c-124.3,0-248.6-92.5-373-92.5l0,0
				c-124.3,0-248.6,92.5-373,92.5l0,0c-124.3,0-248.6-92.5-373-92.5l0,0c-124.3,0-248.6,92.5-373,92.5l0,0
				c-124.3,0-248.7-92.5-373-92.5l0,0c-124.3,0-248.6,92.5-373,92.5l0,0c-124.3,0-248.7-92.5-373-92.5l0,0
				c-124.3,0-248.6,92.5-373,92.5l0,0V1404L2.4,1404"/>
			<path id="path3899_2_" class="st0" d="M2.4,1642.2c124.3,0,248.6-92.5,373-92.5l0,0c124.3,0,248.7,92.5,373,92.5l0,0
				c124.3,0,248.7-92.5,373-92.5l0,0c124.3,0,248.7,92.5,373,92.5l0,0c124.3,0,248.6-92.5,373-92.5l0,0c124.3,0,248.6,92.5,373,92.5
				l0,0c124.3,0,248.6-92.5,373-92.5l0,0c124.3,0,248.6,92.5,373,92.5l0,0v134l0,0c-124.3,0-248.6-92.5-373-92.5l0,0
				c-124.3,0-248.6,92.5-373,92.5l0,0c-124.3,0-248.6-92.5-373-92.5l0,0c-124.3,0-248.6,92.5-373,92.5l0,0
				c-124.3,0-248.7-92.5-373-92.5l0,0c-124.3,0-248.6,92.5-373,92.5l0,0c-124.3,0-248.7-92.5-373-92.5l0,0
				c-124.3,0-248.6,92.5-373,92.5l0,0V1642.2L2.4,1642.2"/>
			<path id="path3901_2_" class="st0" d="M2.4,1880.4c124.3,0,248.6-92.5,373-92.5l0,0c124.3,0,248.7,92.5,373,92.5l0,0
				c124.3,0,248.7-92.5,373-92.5l0,0c124.3,0,248.7,92.5,373,92.5l0,0c124.3,0,248.7-92.5,373-92.5l0,0c124.3,0,248.6,92.5,373,92.5
				l0,0c124.3,0,248.6-92.5,373-92.5l0,0c124.3,0,248.6,92.5,373,92.5l0,0v134l0,0c-124.3,0-248.6-92.5-373-92.5l0,0
				c-124.3,0-248.6,92.5-373,92.5l0,0c-124.3,0-248.6-92.5-373-92.5l0,0c-124.3,0-248.6,92.5-373,92.5l0,0
				c-124.3,0-248.7-92.5-373-92.5l0,0c-124.3,0-248.6,92.5-373,92.5l0,0c-124.3,0-248.7-92.5-373-92.5l0,0
				c-124.3,0-248.6,92.5-373,92.5l0,0V1880.4L2.4,1880.4"/>
			<path id="path3903_2_" class="st0" d="M2.4,2118.6c124.3,0,248.6-92.5,373-92.5l0,0c124.3,0,248.7,92.5,373,92.5l0,0
				c124.3,0,248.7-92.5,373-92.5l0,0c124.3,0,248.7,92.5,373,92.5l0,0c124.3,0,248.7-92.5,373-92.5l0,0c124.3,0,248.7,92.5,373,92.5
				l0,0c124.3,0,248.6-92.5,373-92.5l0,0c124.3,0,248.6,92.5,373,92.5l0,0v134l0,0c-124.3,0-248.6-92.5-373-92.5l0,0
				c-124.3,0-248.6,92.5-373,92.5l0,0c-124.3,0-248.6-92.5-373-92.5l0,0c-124.3,0-248.6,92.5-373,92.5l0,0
				c-124.3,0-248.7-92.5-373-92.5l0,0c-124.3,0-248.6,92.5-373,92.5l0,0c-124.3,0-248.7-92.5-373-92.5l0,0
				c-124.3,0-248.6,92.5-373,92.5l0,0V2118.6L2.4,2118.6"/>
			<path id="path3905_2_" class="st0" d="M2.4,2356.8c124.3,0,248.6-92.5,373-92.5l0,0c124.3,0,248.7,92.5,373,92.5l0,0
				c124.3,0,248.7-92.5,373-92.5l0,0c124.3,0,248.7,92.5,373,92.5l0,0c124.3,0,248.7-92.5,373-92.5l0,0c124.3,0,248.7,92.5,373,92.5
				l0,0c124.3,0,248.6-92.5,373-92.5l0,0c124.3,0,248.6,92.5,373,92.5l0,0v134l0,0c-124.3,0-248.6-92.5-373-92.5l0,0
				c-124.3,0-248.6,92.5-373,92.5l0,0c-124.3,0-248.6-92.5-373-92.5l0,0c-124.3,0-248.6,92.5-373,92.5l0,0
				c-124.3,0-248.6-92.5-373-92.5l0,0c-124.3,0-248.6,92.5-373,92.5l0,0c-124.3,0-248.7-92.5-373-92.5l0,0
				c-124.3,0-248.6,92.5-373,92.5l0,0V2356.8L2.4,2356.8"/>
			<path id="path3907_2_" class="st0" d="M2.4,2595.1c124.3,0,248.6-92.5,373-92.5l0,0c124.3,0,248.7,92.5,373,92.5l0,0
				c124.3,0,248.7-92.5,373-92.5l0,0c124.3,0,248.7,92.5,373,92.5l0,0c124.3,0,248.7-92.5,373-92.5l0,0c124.3,0,248.7,92.5,373,92.5
				l0,0c124.3,0,248.6-92.5,373-92.5l0,0c124.3,0,248.6,92.5,373,92.5l0,0v134l0,0c-124.3,0-248.6-92.5-373-92.5l0,0
				c-124.3,0-248.6,92.5-373,92.5l0,0c-124.3,0-248.6-92.5-373-92.5l0,0c-124.3,0-248.6,92.5-373,92.5l0,0
				c-124.3,0-248.6-92.5-373-92.5l0,0c-124.3,0-248.6,92.5-373,92.5l0,0c-124.3,0-248.7-92.5-373-92.5l0,0
				c-124.3,0-248.6,92.5-373,92.5l0,0V2595.1L2.4,2595.1"/>
			<path id="path3887_2_" class="st0" d="M2.4,212.9c124.3,0,248.6-92.5,373-92.5l0,0c124.3,0,248.6,92.5,373,92.5l0,0
				c124.3,0,248.6-92.5,372.9-92.5l0,0c124.3,0,248.6,92.5,373,92.5l0,0c124.3,0,248.6-92.5,373-92.5l0,0
				c124.3,0,248.6,92.5,373,92.5l0,0c124.3,0,248.6-92.5,373-92.5l0,0c124.3,0,248.6,92.5,373,92.5l0,0v134l0,0
				c-124.3,0-248.6-92.5-373-92.5l0,0c-124.3,0-248.6,92.5-373,92.5l0,0c-124.3,0-248.7-92.5-373-92.5l0,0
				c-124.3,0-248.7,92.5-373,92.5l0,0c-124.3,0-248.7-92.5-373-92.5l0,0c-124.3,0-248.6,92.5-373,92.5l0,0
				c-124.3,0-248.6-92.5-372.9-92.5l0,0c-124.4,0-248.7,92.5-373,92.5l0,0V212.9L2.4,212.9"/>
		</g>
	</g>
</g>
<g id="Calque_2_1_">
	<g id="Calque_1-2">
		<g id="g3959">
			<path id="path3889" class="st1" d="M2.4,330.8c124.3,0,248.6-92.5,373-92.5l0,0c124.3,0,248.6,92.5,373,92.5l0,0
				c124.3,0,248.6-92.5,373-92.5l0,0c124.3,0,248.6,92.5,373,92.5l0,0c124.3,0,248.6-92.5,373-92.5l0,0c124.3,0,248.6,92.5,373,92.5
				l0,0c124.3,0,248.6-92.5,373-92.5l0,0c124.3,0,248.6,92.5,373,92.5l0,0v134l0,0c-124.3,0-248.6-92.5-373-92.5l0,0
				c-124.3,0-248.6,92.5-373,92.5l0,0c-124.3,0-248.7-92.5-373-92.5l0,0c-124.3,0-248.7,92.5-373,92.5l0,0
				c-124.3,0-248.7-92.5-373-92.5l0,0c-124.3,0-248.6,92.5-373,92.5l0,0c-124.3,0-248.7-92.5-373-92.5l0,0
				c-124.3,0-248.6,92.5-373,92.5l0,0V330.8L2.4,330.8"/>
			<path id="path3891" class="st1" d="M2.4,569c124.3,0,248.6-92.5,373-92.5l0,0c124.3,0,248.6,92.5,373,92.5l0,0
				c124.3,0,248.6-92.5,373-92.5l0,0c124.3,0,248.6,92.5,373,92.5l0,0c124.3,0,248.6-92.5,373-92.5l0,0c124.3,0,248.6,92.5,373,92.5
				l0,0c124.3,0,248.6-92.5,373-92.5l0,0c124.3,0,248.6,92.5,373,92.5l0,0v134l0,0c-124.3,0-248.6-92.5-373-92.5l0,0
				c-124.3,0-248.6,92.5-373,92.5l0,0c-124.3,0-248.6-92.5-373-92.5l0,0c-124.3,0-248.7,92.5-373,92.5l0,0
				c-124.3,0-248.7-92.5-373-92.5l0,0c-124.3,0-248.6,92.5-373,92.5l0,0c-124.3,0-248.7-92.5-373-92.5l0,0
				c-124.3,0-248.6,92.5-373,92.5l0,0V569L2.4,569"/>
			<path id="path3893" class="st1" d="M2.4,807.2c124.3,0,248.6-92.5,373-92.5l0,0c124.3,0,248.7,92.5,373,92.5l0,0
				c124.3,0,248.6-92.5,373-92.5l0,0c124.3,0,248.6,92.5,373,92.5l0,0c124.3,0,248.6-92.5,373-92.5l0,0c124.3,0,248.6,92.5,373,92.5
				l0,0c124.3,0,248.6-92.5,373-92.5l0,0c124.3,0,248.6,92.5,373,92.5l0,0v134l0,0c-124.3,0-248.6-92.5-373-92.5l0,0
				c-124.3,0-248.6,92.5-373,92.5l0,0c-124.3,0-248.6-92.5-373-92.5l0,0c-124.3,0-248.7,92.5-373,92.5l0,0
				c-124.3,0-248.7-92.5-373-92.5l0,0c-124.3,0-248.6,92.5-373,92.5l0,0c-124.3,0-248.7-92.5-373-92.5l0,0
				c-124.3,0-248.6,92.5-373,92.5l0,0V807.2L2.4,807.2"/>
			<path id="path3895" class="st1" d="M2.4,1045.4c124.3,0,248.6-92.5,373-92.5l0,0c124.3,0,248.7,92.5,373,92.5l0,0
				c124.3,0,248.7-92.5,373-92.5l0,0c124.3,0,248.6,92.5,373,92.5l0,0c124.3,0,248.6-92.5,373-92.5l0,0c124.3,0,248.6,92.5,373,92.5
				l0,0c124.3,0,248.6-92.5,373-92.5l0,0c124.3,0,248.6,92.5,373,92.5l0,0v134l0,0c-124.3,0-248.6-92.5-373-92.5l0,0
				c-124.3,0-248.6,92.5-373,92.5l0,0c-124.3,0-248.6-92.5-373-92.5l0,0c-124.3,0-248.7,92.5-373,92.5l0,0
				c-124.3,0-248.7-92.5-373-92.5l0,0c-124.3,0-248.6,92.5-373,92.5l0,0c-124.3,0-248.7-92.5-373-92.5l0,0
				c-124.3,0-248.6,92.5-373,92.5l0,0V1045.4L2.4,1045.4"/>
			<path id="path3897" class="st1" d="M2.4,1283.6c124.3,0,248.6-92.5,373-92.5l0,0c124.3,0,248.7,92.5,373,92.5l0,0
				c124.3,0,248.7-92.5,373-92.5l0,0c124.3,0,248.6,92.5,373,92.5l0,0c124.3,0,248.6-92.5,373-92.5l0,0c124.3,0,248.6,92.5,373,92.5
				l0,0c124.3,0,248.6-92.5,373-92.5l0,0c124.3,0,248.6,92.5,373,92.5l0,0v134l0,0c-124.3,0-248.6-92.5-373-92.5l0,0
				c-124.3,0-248.6,92.5-373,92.5l0,0c-124.3,0-248.6-92.5-373-92.5l0,0c-124.3,0-248.6,92.5-373,92.5l0,0
				c-124.3,0-248.7-92.5-373-92.5l0,0c-124.3,0-248.6,92.5-373,92.5l0,0c-124.3,0-248.7-92.5-373-92.5l0,0
				c-124.3,0-248.6,92.5-373,92.5l0,0V1283.6L2.4,1283.6"/>
			<path id="path3899" class="st1" d="M2.4,1521.8c124.3,0,248.6-92.5,373-92.5l0,0c124.3,0,248.7,92.5,373,92.5l0,0
				c124.3,0,248.7-92.5,373-92.5l0,0c124.3,0,248.7,92.5,373,92.5l0,0c124.3,0,248.6-92.5,373-92.5l0,0c124.3,0,248.6,92.5,373,92.5
				l0,0c124.3,0,248.6-92.5,373-92.5l0,0c124.3,0,248.6,92.5,373,92.5l0,0v134l0,0c-124.3,0-248.6-92.5-373-92.5l0,0
				c-124.3,0-248.6,92.5-373,92.5l0,0c-124.3,0-248.6-92.5-373-92.5l0,0c-124.3,0-248.6,92.5-373,92.5l0,0
				c-124.3,0-248.7-92.5-373-92.5l0,0c-124.3,0-248.6,92.5-373,92.5l0,0c-124.3,0-248.7-92.5-373-92.5l0,0
				c-124.3,0-248.6,92.5-373,92.5l0,0V1521.8L2.4,1521.8"/>
			<path id="path3901" class="st1" d="M2.4,1760.1c124.3,0,248.6-92.5,373-92.5l0,0c124.3,0,248.7,92.5,373,92.5l0,0
				c124.3,0,248.7-92.5,373-92.5l0,0c124.3,0,248.7,92.5,373,92.5l0,0c124.3,0,248.7-92.5,373-92.5l0,0c124.3,0,248.6,92.5,373,92.5
				l0,0c124.3,0,248.6-92.5,373-92.5l0,0c124.3,0,248.6,92.5,373,92.5l0,0v134l0,0c-124.3,0-248.6-92.5-373-92.5l0,0
				c-124.3,0-248.6,92.5-373,92.5l0,0c-124.3,0-248.6-92.5-373-92.5l0,0c-124.3,0-248.6,92.5-373,92.5l0,0
				c-124.3,0-248.7-92.5-373-92.5l0,0c-124.3,0-248.6,92.5-373,92.5l0,0c-124.3,0-248.7-92.5-373-92.5l0,0
				c-124.3,0-248.6,92.5-373,92.5l0,0V1760.1L2.4,1760.1"/>
			<path id="path3903" class="st1" d="M2.4,1998.3c124.3,0,248.6-92.5,373-92.5l0,0c124.3,0,248.7,92.5,373,92.5l0,0
				c124.3,0,248.7-92.5,373-92.5l0,0c124.3,0,248.7,92.5,373,92.5l0,0c124.3,0,248.7-92.5,373-92.5l0,0c124.3,0,248.7,92.5,373,92.5
				l0,0c124.3,0,248.6-92.5,373-92.5l0,0c124.3,0,248.6,92.5,373,92.5l0,0v134l0,0c-124.3,0-248.6-92.5-373-92.5l0,0
				c-124.3,0-248.6,92.5-373,92.5l0,0c-124.3,0-248.6-92.5-373-92.5l0,0c-124.3,0-248.6,92.5-373,92.5l0,0
				c-124.3,0-248.7-92.5-373-92.5l0,0c-124.3,0-248.6,92.5-373,92.5l0,0c-124.3,0-248.7-92.5-373-92.5l0,0
				c-124.3,0-248.6,92.5-373,92.5l0,0V1998.3L2.4,1998.3"/>
			<path id="path3905" class="st1" d="M2.4,2236.5c124.3,0,248.6-92.5,373-92.5l0,0c124.3,0,248.7,92.5,373,92.5l0,0
				c124.3,0,248.7-92.5,373-92.5l0,0c124.3,0,248.7,92.5,373,92.5l0,0c124.3,0,248.7-92.5,373-92.5l0,0c124.3,0,248.7,92.5,373,92.5
				l0,0c124.3,0,248.6-92.5,373-92.5l0,0c124.3,0,248.6,92.5,373,92.5l0,0v134l0,0c-124.3,0-248.6-92.5-373-92.5l0,0
				c-124.3,0-248.6,92.5-373,92.5l0,0c-124.3,0-248.6-92.5-373-92.5l0,0c-124.3,0-248.6,92.5-373,92.5l0,0
				c-124.3,0-248.6-92.5-373-92.5l0,0c-124.3,0-248.6,92.5-373,92.5l0,0c-124.3,0-248.7-92.5-373-92.5l0,0
				c-124.3,0-248.6,92.5-373,92.5l0,0V2236.5L2.4,2236.5"/>
			<path id="path3907" class="st1" d="M2.4,2474.7c124.3,0,248.6-92.5,373-92.5l0,0c124.3,0,248.7,92.5,373,92.5l0,0
				c124.3,0,248.7-92.5,373-92.5l0,0c124.3,0,248.7,92.5,373,92.5l0,0c124.3,0,248.7-92.5,373-92.5l0,0c124.3,0,248.7,92.5,373,92.5
				l0,0c124.3,0,248.6-92.5,373-92.5l0,0c124.3,0,248.6,92.5,373,92.5l0,0v134l0,0c-124.3,0-248.6-92.5-373-92.5l0,0
				c-124.3,0-248.6,92.5-373,92.5l0,0c-124.3,0-248.6-92.5-373-92.5l0,0c-124.3,0-248.6,92.5-373,92.5l0,0
				c-124.3,0-248.6-92.5-373-92.5l0,0c-124.3,0-248.6,92.5-373,92.5l0,0c-124.3,0-248.7-92.5-373-92.5l0,0
				c-124.3,0-248.6,92.5-373,92.5l0,0V2474.7L2.4,2474.7"/>
			<path id="path3887" class="st1" d="M2.4,92.5C126.7,92.5,251.1,0,375.4,0l0,0c124.3,0,248.6,92.5,373,92.5l0,0
				C872.7,92.5,997,0,1121.3,0l0,0c124.3,0,248.6,92.5,373,92.5l0,0c124.3,0,248.6-92.5,373-92.5l0,0c124.3,0,248.6,92.5,373,92.5
				l0,0c124.3,0,248.6-92.5,373-92.5l0,0c124.3,0,248.6,92.5,373,92.5l0,0v134l0,0c-124.3,0-248.6-92.5-373-92.5l0,0
				c-124.3,0-248.6,92.5-373,92.5l0,0c-124.3,0-248.7-92.5-373-92.5l0,0c-124.3,0-248.7,92.5-373,92.5l0,0
				c-124.3,0-248.7-92.5-373-92.5l0,0c-124.3,0-248.6,92.5-373,92.5l0,0C624,226.5,499.7,134,375.4,134l0,0
				c-124.4,0-248.7,92.5-373,92.5l0,0V92.5L2.4,92.5"/>
		</g>
	</g>
</g>
</svg>
